<?xml version="1.0" encoding="UTF-8" standalone="no"?>
<svg width="47px" height="41px" viewBox="0 0 47 41" version="1.1" xmlns="http://www.w3.org/2000/svg" xmlns:xlink="http://www.w3.org/1999/xlink">
    <!-- Generator: Sketch 49.3 (51167) - http://www.bohemiancoding.com/sketch -->
    <title>Customer Service Agents</title>
    <desc>Created with Sketch.</desc>
    <defs></defs>
    <g id="Symbols" stroke="none" stroke-width="1" fill="none" fill-rule="evenodd">
        <g id="icon-small/Customer-Service-Agents" transform="translate(3.000000, 0.000000)">
            <g id="Customer-Service-Agents" transform="translate(-3.000000, 0.500000)">
                <path d="M26.4754,38.5104 L36.4214,38.5104 C37.5224,38.5104 38.4144,37.6184 38.4144,36.5174 L38.4144,32.0654" id="Stroke-1" stroke="#7D7D7D" stroke-width="2" stroke-linecap="round" stroke-linejoin="round"></path>
                <path d="M23.2987,0.9999 C17.8047,0.9999 12.8867,3.4569 9.5737,7.3269 L11.3427,9.0959 C11.7977,9.5499 12.5327,9.5399 12.9797,9.0779 C15.5897,6.3809 19.2487,4.7029 23.2987,4.7029 C27.3487,4.7029 31.0067,6.3809 33.6177,9.0779 C34.0647,9.5399 34.7987,9.5499 35.2537,9.0959 L37.0227,7.3269 C33.7097,3.4569 28.7927,0.9999 23.2987,0.9999" id="Fill-3" fill="#B2B2B2"></path>
                <path d="M23.2987,0.9999 C17.8047,0.9999 12.8867,3.4569 9.5737,7.3269 L11.3427,9.0959 C11.7977,9.5499 12.5327,9.5399 12.9797,9.0779 C15.5897,6.3809 19.2487,4.7029 23.2987,4.7029 C27.3487,4.7029 31.0067,6.3809 33.6177,9.0779 C34.0647,9.5399 34.7987,9.5499 35.2537,9.0959 L37.0227,7.3269 C33.7097,3.4569 28.7927,0.9999 23.2987,0.9999 Z" id="Stroke-5" stroke="#7D7D7D" stroke-width="2" stroke-linecap="round" stroke-linejoin="round"></path>
                <path d="M41.1302,21.9355 C41.2792,20.9995 41.3602,20.0395 41.3602,19.0615 C41.3602,9.0865 33.2742,0.9995 23.2982,0.9995 C13.3232,0.9995 5.2362,9.0865 5.2362,19.0615 C5.2362,20.0395 5.3172,20.9995 5.4662,21.9355" id="Stroke-7" stroke="#7D7D7D" stroke-width="2" stroke-linecap="round" stroke-linejoin="round"></path>
                <path d="M11.7035,18.9333 L8.6485,18.9333 C4.4245,18.9333 0.9995,22.3583 0.9995,26.5823 C0.9995,30.8063 4.4245,34.2313 8.6485,34.2313 L11.7035,34.2313 L11.7035,18.9333 Z" id="Fill-9" fill="#F2F2F2"></path>
                <path d="M11.7035,18.9333 L8.6485,18.9333 C4.4245,18.9333 0.9995,22.3583 0.9995,26.5823 C0.9995,30.8063 4.4245,34.2313 8.6485,34.2313 L11.7035,34.2313 L11.7035,18.9333 Z" id="Stroke-11" stroke="#7D7D7D" stroke-width="2" stroke-linecap="round" stroke-linejoin="round"></path>
                <polygon id="Fill-13" fill="#A3E789" points="8.342 34.231 11.703 34.231 11.703 18.933 8.342 18.933"></polygon>
                <polygon id="Stroke-15" stroke="#7D7D7D" stroke-width="2" stroke-linecap="round" stroke-linejoin="round" points="8.342 34.231 11.703 34.231 11.703 18.933 8.342 18.933"></polygon>
                <path d="M35.1288,18.9333 L38.1838,18.9333 C42.4078,18.9333 45.8328,22.3583 45.8328,26.5823 C45.8328,30.8063 42.4078,34.2313 38.1838,34.2313 L35.1288,34.2313 L35.1288,18.9333 Z" id="Fill-16" fill="#F2F2F2"></path>
                <path d="M35.1288,18.9333 L38.1838,18.9333 C42.4078,18.9333 45.8328,22.3583 45.8328,26.5823 C45.8328,30.8063 42.4078,34.2313 38.1838,34.2313 L35.1288,34.2313 L35.1288,18.9333 Z" id="Stroke-17" stroke="#7D7D7D" stroke-width="2" stroke-linecap="round" stroke-linejoin="round"></path>
                <polygon id="Fill-18" fill="#A3E789" points="35.129 34.231 38.49 34.231 38.49 18.933 35.129 18.933"></polygon>
                <polygon id="Stroke-19" stroke="#7D7D7D" stroke-width="2" stroke-linecap="round" stroke-linejoin="round" points="35.129 34.231 38.49 34.231 38.49 18.933 35.129 18.933"></polygon>
                <path d="M22.7547,37.1825 L25.7947,37.1825 C26.4087,37.1825 26.9077,37.6815 26.9077,38.2965 L26.9077,38.3865 C26.9077,39.0015 26.4087,39.4995 25.7947,39.4995 L22.7547,39.4995 C22.1397,39.4995 21.6407,39.0015 21.6407,38.3865 L21.6407,38.2965 C21.6407,37.6815 22.1397,37.1825 22.7547,37.1825" id="Fill-20" fill="#FFFFFF"></path>
                <path d="M22.7547,37.1825 L25.7947,37.1825 C26.4087,37.1825 26.9077,37.6815 26.9077,38.2965 L26.9077,38.3865 C26.9077,39.0015 26.4087,39.4995 25.7947,39.4995 L22.7547,39.4995 C22.1397,39.4995 21.6407,39.0015 21.6407,38.3865 L21.6407,38.2965 C21.6407,37.6815 22.1397,37.1825 22.7547,37.1825 Z" id="Stroke-21" stroke="#7D7D7D" stroke-width="2" stroke-linecap="round" stroke-linejoin="round"></path>
            </g>
        </g>
    </g>
</svg>