<?xml version="1.0" encoding="UTF-8" standalone="no"?>
<svg width="40px" height="40px" viewBox="0 0 40 40" version="1.1" xmlns="http://www.w3.org/2000/svg" xmlns:xlink="http://www.w3.org/1999/xlink">
    <!-- Generator: Sketch 49.3 (51167) - http://www.bohemiancoding.com/sketch -->
    <title>Designers &amp; Creatives</title>
    <desc>Created with Sketch.</desc>
    <defs></defs>
    <g id="Symbols" stroke="none" stroke-width="1" fill="none" fill-rule="evenodd">
        <g id="icon-small/Designers-&amp;-Creatives">
            <g id="Designers-&amp;-Creatives" transform="translate(1.000000, 1.000000)">
                <path d="M37.4516,33.2534 L33.2536,37.4514 C32.5316,38.1734 31.3606,38.1734 30.6386,37.4514 L0.5416,7.3554 C-0.1804,6.6334 -0.1804,5.4624 0.5416,4.7404 L4.7406,0.5414 C5.4626,-0.1806 6.6336,-0.1806 7.3556,0.5414 L37.4516,30.6384 C38.1736,31.3604 38.1736,32.5314 37.4516,33.2534" id="Fill-1" fill="#FFFFFF"></path>
                <path d="M37.4516,33.2534 L33.2536,37.4514 C32.5316,38.1734 31.3606,38.1734 30.6386,37.4514 L0.5416,7.3554 C-0.1804,6.6334 -0.1804,5.4624 0.5416,4.7404 L4.7406,0.5414 C5.4626,-0.1806 6.6336,-0.1806 7.3556,0.5414 L37.4516,30.6384 C38.1736,31.3604 38.1736,32.5314 37.4516,33.2534 Z" id="Stroke-3" stroke="#7D7D7D" stroke-width="2" stroke-linecap="round" stroke-linejoin="round"></path>
                <g id="Group-8" transform="translate(2.000000, 6.993400)">
                    <path d="M0.4018,2.2217 L2.5038,0.1197" id="Fill-5" fill="#FFFFFF"></path>
                    <path d="M0.4018,2.2217 L2.5038,0.1197" id="Stroke-7" stroke="#7D7D7D" stroke-width="2" stroke-linecap="round" stroke-linejoin="round"></path>
                </g>
                <g id="Group-12" transform="translate(5.000000, 7.993400)">
                    <path d="M0.5268,4.3472 L4.0718,0.8022" id="Fill-9" fill="#FFFFFF"></path>
                    <path d="M0.5268,4.3472 L4.0718,0.8022" id="Stroke-11" stroke="#7D7D7D" stroke-width="2" stroke-linecap="round" stroke-linejoin="round"></path>
                </g>
                <g id="Group-16" transform="translate(8.000000, 12.993400)">
                    <path d="M0.6523,2.4724 L2.7553,0.3704" id="Fill-13" fill="#FFFFFF"></path>
                    <path d="M0.6523,2.4724 L2.7553,0.3704" id="Stroke-15" stroke="#7D7D7D" stroke-width="2" stroke-linecap="round" stroke-linejoin="round"></path>
                </g>
                <g id="Group-20" transform="translate(22.000000, 26.993400)">
                    <path d="M0.9574,2.7774 L3.0594,0.6754" id="Fill-17" fill="#FFFFFF"></path>
                    <path d="M0.9574,2.7774 L3.0594,0.6754" id="Stroke-19" stroke="#7D7D7D" stroke-width="2" stroke-linecap="round" stroke-linejoin="round"></path>
                </g>
                <g id="Group-24" transform="translate(26.000000, 28.993400)">
                    <path d="M0.0824,3.9029 L3.6274,0.3579" id="Fill-21" fill="#FFFFFF"></path>
                    <path d="M0.0824,3.9029 L3.6274,0.3579" id="Stroke-23" stroke="#7D7D7D" stroke-width="2" stroke-linecap="round" stroke-linejoin="round"></path>
                </g>
                <g id="Group-28" transform="translate(29.000000, 32.993400)">
                    <path d="M0.2079,3.0284 L2.3109,0.9254" id="Fill-25" fill="#FFFFFF"></path>
                    <path d="M0.2079,3.0284 L2.3109,0.9254" id="Stroke-27" stroke="#7D7D7D" stroke-width="2" stroke-linecap="round" stroke-linejoin="round"></path>
                </g>
                <polygon id="Fill-29" fill="#B0E44F" points="26.1088 5.022 2.9838 28.147 0.2608 37.782 9.7968 34.961 32.9218 11.835"></polygon>
                <polygon id="Stroke-31" stroke="#7D7D7D" stroke-width="2" stroke-linecap="round" stroke-linejoin="round" points="26.1088 5.022 2.9838 28.147 0.2608 37.782 9.7968 34.961 32.9218 11.835"></polygon>
                <polygon id="Fill-33" fill="#F9F9F9" points="26.1088 5.022 2.9838 28.147 0.2608 37.782 9.7968 34.961 32.9218 11.835"></polygon>
                <polygon id="Stroke-35" stroke="#7D7D7D" stroke-width="2" stroke-linecap="round" stroke-linejoin="round" points="26.1088 5.022 2.9838 28.147 0.2608 37.782 9.7968 34.961 32.9218 11.835"></polygon>
                <path d="M37.3642,7.3933 C37.8552,6.9023 37.8552,6.1063 37.3642,5.6153 L32.3292,0.5793 C31.8382,0.0883 31.0422,0.0893 30.5512,0.5803 L26.1092,5.0223 L32.9222,11.8353 L37.3642,7.3933 Z" id="Fill-37" fill="#FFFFFF"></path>
                <path d="M37.3642,7.3933 C37.8552,6.9023 37.8552,6.1063 37.3642,5.6153 L32.3292,0.5793 C31.8382,0.0883 31.0422,0.0893 30.5512,0.5803 L26.1092,5.0223 L32.9222,11.8353 L37.3642,7.3933 Z" id="Stroke-39" stroke="#7D7D7D" stroke-width="2" stroke-linecap="round" stroke-linejoin="round"></path>
                <polygon id="Fill-41" fill="#A3E789" points="6.4277 31.6155 9.7777 31.6155 9.7777 34.9665 9.7967 34.9605 32.9227 11.8355 26.1087 5.0215 2.9837 28.1475 2.9497 28.2655 6.4277 28.2655"></polygon>
                <polygon id="Stroke-43" stroke="#7D7D7D" stroke-width="2" stroke-linecap="round" stroke-linejoin="round" points="6.4277 31.6155 9.7777 31.6155 9.7777 34.9665 9.7967 34.9605 32.9227 11.8355 26.1087 5.0215 2.9837 28.1475 2.9497 28.2655 6.4277 28.2655"></polygon>
            </g>
        </g>
    </g>
</svg>