<?xml version="1.0" encoding="UTF-8"?>
<svg preserveAspectRatio="xMidYMid meet" width="279px" viewBox="0 0 279 38" version="1.1" xmlns="http://www.w3.org/2000/svg" xmlns:xlink="http://www.w3.org/1999/xlink">
    <!-- Generator: sketchtool 52.3 (67297) - http://www.bohemiancoding.com/sketch -->
    <title>65ED3C4C-64C5-4E01-AD55-665C165CA3AB</title>
    <desc>Created with sketchtool.</desc>
    <g id="Page-1" stroke="none" stroke-width="1" fill="none" fill-rule="evenodd">
        <g id="T1---SM" transform="translate(-248.000000, -417.000000)">
            <g id="logo-bar" transform="translate(240.000000, 387.000000)">
                <g id="logo-bar-xs-sm-t1" transform="translate(8.000000, 30.000000)">
                    <g id="dropbox-2017" transform="translate(180.000000, 10.000000)">
                        <path d="M11.4646795,3.77052363 L5.73261418,7.38957482 L11.4646795,11.0091689 L5.73261418,14.6282201 L0,10.9787659 L5.73261418,7.35971466 L0,3.77052363 L5.73261418,0.150929528 L11.4646795,3.77052363 Z M5.70187924,15.7743073 L11.4339446,12.1552561 L17.1665588,15.7743073 L11.4339446,19.3939014 L5.70187924,15.7743073 Z M11.4646795,10.9787659 L17.1967449,7.35971466 L11.4646795,3.77052363 L17.1665588,0.150929528 L22.8986241,3.77052363 L17.1665588,7.38957482 L22.8986241,11.0091689 L17.1665588,14.6282201 L11.4646795,10.9787659 Z" id="Fill-1" fill="#0061FF"></path>
                        <path d="M27.380985,3.77052363 L32.0153741,3.77052363 C34.9730628,3.77052363 37.4120994,5.45952277 37.4120994,9.32016978 L37.4120994,10.1345377 C37.4120994,14.0250449 35.1256398,15.7743073 32.1070301,15.7743073 L27.380985,15.7743073 L27.380985,3.77052363 Z M29.9725987,5.94217151 L29.9725987,13.5727992 L31.9544531,13.5727992 C33.6317024,13.5727992 34.7595648,12.4869753 34.7595648,10.0742745 L34.7595648,9.44069624 C34.7595648,7.02745254 33.5707814,5.94217151 31.863346,5.94217151 L29.9725987,5.94217151 Z M38.7847435,6.06269797 L40.858254,6.06269797 L41.1930452,8.32446923 C41.5898552,6.78639962 42.5958754,5.97203167 44.4251529,5.97203167 L45.065647,5.97203167 L45.065647,8.56606506 L43.9987057,8.56606506 C41.8944603,8.56606506 41.3763571,9.28976671 41.3763571,11.3408881 L41.3763571,15.8047104 L38.8149296,15.8047104 L38.8149296,6.06269797 L38.7847435,6.06269797 Z M45.5837502,11.1296954 L45.5837502,10.8582394 C45.5837502,7.60076758 47.6879955,5.82110214 50.5540282,5.82110214 C53.4809819,5.82110214 55.5243062,7.60076758 55.5243062,10.8582394 L55.5243062,11.1296954 C55.5243062,14.326904 53.5419029,16.0457633 50.5540282,16.0457633 C47.3828415,16.0159031 45.5837502,14.326904 45.5837502,11.1296954 Z M52.9019577,11.0998352 L52.9019577,10.8582394 C52.9019577,9.0487138 51.9870445,7.96288986 50.5232933,7.96288986 C49.0902769,7.96288986 48.1451777,8.9580475 48.1451777,10.8582394 L48.1451777,11.0998352 C48.1451777,12.8490976 49.0600908,13.8442552 50.5232933,13.8442552 C51.9870445,13.8138522 52.9019577,12.8490976 52.9019577,11.0998352 Z M56.8656666,6.06269797 L59.0000981,6.06269797 L59.2437822,7.90262663 C59.7624342,6.66587316 60.8601105,5.82110214 62.4758899,5.82110214 C64.9763964,5.82110214 66.6229107,7.60076758 66.6229107,10.8886425 L66.6229107,11.1600984 C66.6229107,14.3567641 64.7936333,16.0457633 62.4758899,16.0457633 C60.9210315,16.0457633 59.8540902,15.3524647 59.3354382,14.2362377 L59.3354382,19.1528485 L56.8354805,19.1528485 L56.8656666,6.06269797 Z M64.0312971,11.0998352 L64.0312971,10.8886425 C64.0312971,8.9580475 63.024728,7.99275002 61.6833676,7.99275002 C60.2503513,7.99275002 59.3052521,9.07857396 59.3052521,10.8886425 L59.3052521,11.0694322 C59.3052521,12.7888344 60.2196164,13.8746583 61.6526327,13.8746583 C63.116384,13.8442552 64.0312971,12.9093608 64.0312971,11.0998352 Z M70.4038566,13.9951848 L70.1903585,15.7743073 L67.995006,15.7743073 L67.995006,2.80522615 L70.4955125,2.80522615 L70.4955125,7.78155726 C71.0443506,6.51494364 72.141478,5.82110214 73.6968853,5.82110214 C76.0448148,5.85150521 77.7824363,7.44983805 77.7824363,10.6774497 L77.7824363,10.9787659 C77.7824363,14.2063775 76.1359219,16.0457633 73.6359642,16.0457633 C71.9894499,16.0159031 70.9219597,15.2617984 70.4038566,13.9951848 Z M75.1606366,10.9787659 L75.1606366,10.7377129 C75.1606366,8.9580475 74.1848024,7.96234695 72.8127071,7.96234695 C71.4098768,7.96234695 70.4340426,9.07857396 70.4340426,10.7675731 L70.4340426,10.9787659 C70.4340426,12.7882914 71.3796907,13.8442552 72.7819721,13.8442552 C74.2759095,13.8442552 75.1606366,12.9093608 75.1606366,10.9787659 Z M78.8801125,11.1296954 L78.8801125,10.8582394 C78.8801125,7.60076758 80.9843579,5.82110214 83.8503905,5.82110214 C86.7773442,5.82110214 88.8201197,7.60076758 88.8201197,10.8582394 L88.8201197,11.1296954 C88.8201197,14.326904 86.8075303,16.0457633 83.8503905,16.0457633 C80.6792039,16.0159031 78.8801125,14.326904 78.8801125,11.1296954 Z M86.2285061,11.0998352 L86.2285061,10.8582394 C86.2285061,9.0487138 85.313593,7.96288986 83.8503905,7.96288986 C82.4173742,7.96288986 81.4717261,8.9580475 81.4717261,10.8582394 L81.4717261,11.0998352 C81.4717261,12.8490976 82.3866393,13.8442552 83.8503905,13.8442552 C85.313593,13.8138522 86.2285061,12.8490976 86.2285061,11.0998352 Z M92.1740695,10.7377129 L88.7290126,6.06269797 L91.6867012,6.06269797 L93.6685557,8.98790766 L95.6811451,6.06269797 L98.6080988,6.06269797 L95.101572,10.7073099 L98.7908619,15.7743073 L95.8940943,15.7743073 L93.6378208,12.5472385 L91.4424683,15.7743073 L88.4238586,15.7743073 L92.1740695,10.7377129 Z" id="Fill-2" fill="#000000"></path>
                    </g>
                    <g id="General_Electric_Security" transform="translate(116.000000, 0.000000)" fill="#3B73B9">
                        <path d="M32.420389,5.57964154 C28.7009949,1.86022712 24.2281558,0 19.0006239,0 C13.7720521,0 9.29796526,1.86022712 5.57857119,5.57964154 C1.85917713,9.29905596 0,13.7725434 0,19.000104 C0,24.2636421 1.85917713,28.745864 5.57857119,32.4478095 C9.29796526,36.1497551 13.7720521,38 19.0006239,38 C24.2281558,38 28.7009949,36.1497551 32.420389,32.4478095 C36.1397831,28.745864 38,24.2636421 38,19.000104 C38,13.7725434 36.1397831,9.29905596 32.420389,5.57964154 Z M31.8004346,31.7752084 C28.2780405,35.3149737 24.0107443,37.0843373 18.9995845,37.0843373 C14.0233226,37.0843373 9.76475087,35.3149737 6.22490786,31.7752084 C2.68506484,28.2352355 0.915662651,23.9767635 0.915662651,19.0006228 C0.915662651,13.9893979 2.68506484,9.72199921 6.22490786,6.19967218 C9.76475087,2.67734516 14.0233226,0.915662651 18.9995845,0.915662651 C23.9756387,0.915662651 28.2342105,2.6862719 31.7740535,6.22603722 C35.3138965,9.76580253 37.0843373,14.0244821 37.0843373,19.0006228 C37.0843373,23.9767635 35.322621,28.2352355 31.8004346,31.7752084 Z M33.3439124,10.1962973 C31.6248891,7.39080032 29.2041218,5.51492933 26.0830655,4.56764564 C24.5743991,4.1116615 23.295005,3.88356556 22.2425969,3.88356556 C21.0848025,3.88356556 20.1211516,4.17294411 19.349358,4.75190894 C18.5775643,5.33066604 18.0173747,5.6190059 17.6665027,5.6190059 C16.7895306,5.6190059 16.3509406,5.19812942 16.3509406,4.35616871 C16.3509406,3.72568494 16.683105,3.20821045 17.3497202,2.80478394 C18.0163354,2.40135742 18.9109758,2.19964416 20.0334336,2.19964416 C21.8216752,2.19964416 23.1721582,2.4277401 24.084467,2.88372424 L24.1370562,2.72584363 C22.4880826,2.12942883 20.7000489,1.8313253 18.7717079,1.8313253 C15.5440181,1.8313253 12.6684475,2.62072838 10.1437489,4.1982881 C7.37210961,5.91731716 5.51381835,8.33787628 4.56783586,11.4591345 C4.11178541,12.9326176 3.88376018,14.2120738 3.88376018,15.2995804 C3.88376018,16.4573024 4.17206555,17.4297223 4.75075491,18.2191254 C5.32965213,19.0085285 5.61920467,19.5775219 5.61920467,19.9281831 C5.61920467,20.7701438 5.19807513,21.191228 4.35623177,21.191228 C2.91782288,21.191228 2.19986561,19.9645371 2.19986561,17.5086626 C2.19986561,16.0702871 2.41022252,14.7208234 2.8311442,13.4577784 L2.67337652,13.4052208 C2.11193975,15.6504493 1.8313253,17.4384473 1.8313253,18.7704611 C1.8313253,22.0331887 2.61974798,24.9263509 4.19825623,27.4511944 C5.91748744,30.2226224 8.33700759,32.0810434 11.4593111,33.0270807 C12.9316015,33.4832725 14.2120349,33.7111607 15.2995718,33.7111607 C16.4563269,33.7111607 17.4199777,33.4140959 18.1917714,32.8176811 C18.9635651,32.2212663 19.524794,31.9231628 19.875666,31.9231628 C20.7526381,31.9231628 21.1912281,32.361697 21.1912281,33.2387653 C21.1912281,33.8351801 20.8580244,34.3339582 20.1914092,34.7373847 C19.524794,35.1408113 18.6314007,35.3425245 17.508735,35.3425245 C15.8597614,35.3425245 14.5103177,35.1320863 13.4579095,34.7110021 L13.4051124,34.8688827 C14.6319173,35.4301898 16.4201588,35.7108434 18.7706686,35.7108434 C21.9971112,35.7108434 24.8726818,34.9226867 27.3986276,33.3438806 C30.1690198,31.6248515 32.0271031,29.2053311 32.9743328,26.0830342 C33.4305911,24.5754821 33.6586164,23.3126449 33.6586164,22.2951459 C33.6586164,21.1035627 33.3690638,20.113485 32.7901666,19.3242897 C32.2114772,18.5348866 31.922964,17.9823045 31.922964,17.6665432 C31.922964,16.7894749 32.3440935,16.3509407 33.1859369,16.3509407 C33.816384,16.3509407 34.3337539,16.6930846 34.7372152,17.3771647 C35.1406764,18.0612448 35.3425109,18.9634494 35.3425109,20.0860637 C35.3425109,21.3140009 35.1319462,22.6647111 34.7110245,24.1369479 L34.8687922,24.1897132 C35.4302289,22.5068305 35.7108434,20.7011749 35.7108434,18.7717076 C35.7108434,15.5451264 34.9215892,12.6870717 33.3439124,10.1962973 Z M27.8529856,27.345013 C26.8872287,28.3446816 25.6857539,28.8433735 24.2460646,28.8433735 C22.5255111,28.8433735 21.1571821,28.2121678 20.1400374,26.9493411 C19.2271246,25.8630609 18.7706682,24.5653403 18.7706682,23.0570102 C18.7706682,20.3222011 20.0160411,18.3062478 22.5090753,17.0085272 C22.3334831,16.8681208 22.157891,16.6577189 21.9822988,16.3771138 C20.5076575,17.4295387 18.8934163,18.4466542 17.138951,19.4276296 C16.9985189,21.6724702 16.7702907,23.267412 16.4542664,24.2145321 C15.4358735,27.3011879 13.7165683,28.8433735 11.2946863,28.8433735 C10.3116615,28.8433735 9.55665678,28.5453215 9.0298803,27.9490097 C8.50331186,27.352698 8.24096386,26.634673 8.24096386,25.7928577 C8.24096386,24.4600355 8.87197218,23.215902 10.1360693,22.0583801 C10.8030699,21.4620683 11.6271464,20.8657566 12.6103792,20.2694448 C13.1019957,19.9888398 14.1191403,19.4463228 15.6641017,18.6396091 C15.7344218,18.2185977 15.7870578,17.885444 15.8222179,17.6399406 C15.2954414,18.1309475 14.5932808,18.376451 13.7165683,18.376451 C12.5225832,18.376451 11.7852625,17.7286292 11.5043983,16.4309086 C9.78384475,16.2905022 8.90713222,15.3435899 8.87197218,13.5897562 C8.83681214,12.0824646 9.2581085,11.3282995 10.1360693,11.3282995 C10.4169335,11.3282995 10.5573657,11.4861528 10.5573657,11.8018595 C10.5573657,11.8369611 10.5134676,12.0386395 10.4256715,12.4068947 C10.3378755,12.7753576 10.2939774,13.0997878 10.2939774,13.3791466 C10.2939774,14.4315715 10.6803218,14.95768 11.4528025,14.95768 C11.4528025,13.5205915 11.8992726,12.1186047 12.7947094,10.7506809 C13.6901462,9.38275708 14.6985529,8.69879518 15.8222179,8.69879518 C17.0159949,8.69879518 17.6128834,9.26000534 17.6128834,10.3813871 C17.6128834,11.5740106 17.130213,12.7664265 16.1644561,13.9580114 C15.1989073,15.150635 14.1905007,15.9212085 13.1371557,16.2720168 C13.2775878,16.7981253 13.5759281,17.0610757 14.0325925,17.0610757 C14.8038249,17.0610757 15.5413536,16.6226173 16.2435142,15.7457005 C16.5946985,13.9580114 17.2783429,13.0636477 18.2965278,13.0636477 C18.7180322,13.0636477 18.9285764,13.2914965 18.9285764,13.7476096 C18.9285764,14.3439213 18.4369599,15.1680819 17.4549753,16.2192605 C17.3497032,16.7453691 17.2968591,17.2716853 17.2968591,17.7977939 C19.0866925,16.7115137 20.4735377,15.8169422 21.4567706,15.1155334 C21.3864505,14.8700299 21.3514985,14.4666731 21.3514985,13.9054629 C21.3514985,12.6085731 21.7191186,11.4171958 22.4564393,10.3298771 C23.1937599,9.24235069 24.0891967,8.69879518 25.1425416,8.69879518 C26.3704385,8.69879518 26.9850111,9.29510693 26.9850111,10.4864842 C26.9850111,11.9597128 25.756074,13.6248578 23.299032,15.4827501 C23.5097842,15.973757 23.7906484,16.3069107 24.1418328,16.4824186 C24.2121528,16.3420123 24.649885,16.2720168 25.4575257,16.2720168 C26.4757106,16.2720168 26.9850111,16.5349672 26.9850111,17.0610757 C26.9850111,17.6573875 26.3881225,17.9556472 25.1951777,17.9556472 C24.9494735,17.9907488 24.5808132,17.9556472 24.0891967,17.8503424 C21.8418667,18.4466542 20.71945,20.1128377 20.71945,22.8466083 C20.71945,24.0390241 21.060648,25.0650708 21.7453326,25.9245407 C22.4300172,26.7838028 23.299032,27.2124993 24.352585,27.2124993 C25.2303377,27.2124993 25.9666181,26.9152781 26.5635066,26.3189663 C27.1603952,25.7228622 27.4589435,24.9510425 27.4589435,24.0041302 C27.4941035,22.2864366 26.897215,21.4269667 25.6693181,21.4269667 C24.8968374,21.4269667 24.4930171,21.8128766 24.457857,22.5844887 C24.457857,22.9703985 24.5808132,23.3212068 24.8265174,23.6369135 C25.0724296,23.9526201 25.1951777,24.2145321 25.1951777,24.424934 C25.1951777,24.8808393 24.9494735,25.1088958 24.457857,25.1088958 C23.9310805,25.1088958 23.4923082,24.8808393 23.1411239,24.424934 C22.7899395,23.9690286 22.6143474,23.4078184 22.6143474,22.7413035 C22.6143474,21.9356284 22.9205934,21.2516665 23.5349579,20.6904563 C24.1495305,20.1292461 24.8955892,19.8486411 25.77355,19.8486411 C26.8620549,19.8486411 27.7210834,20.2519979 28.353132,21.0587115 C28.9851805,21.8654252 29.3012048,22.8466083 29.3012048,24.0041302 C29.3012048,25.2316476 28.8185344,26.3453444 27.8529856,27.345013 Z M25.2902171,10.0722892 C24.8919491,10.0722892 24.4691087,10.4403967 24.0211063,11.1764138 C23.5733005,11.9126289 23.3493976,12.7647445 23.3493976,13.7349398 C24.8754365,12.3976275 25.6385542,11.3604676 25.6385542,10.6244505 C25.6385542,10.2563429 25.5223763,10.0722892 25.2902171,10.0722892 Z M16.0950262,10.0722892 C15.5421851,10.0722892 14.9341035,10.6187204 14.2707814,11.7115829 C13.6074594,12.8044454 13.2771084,13.7832969 13.2771084,14.6506024 C14.1613923,14.1996939 14.9157628,13.5415113 15.5421851,12.6742058 C16.1686074,11.8069002 16.4819277,11.061001 16.4819277,10.4367136 C16.4819277,10.1939009 16.3528878,10.0722892 16.0950262,10.0722892 Z M10.0722892,25.6379701 C10.0722892,26.5539526 10.4854229,27.0120482 11.3114774,27.0120482 C12.3880515,27.0120482 13.3401108,26.2556482 14.1663782,24.740762 C14.8476976,23.4726551 15.3146813,21.9412892 15.5662651,20.1445783 C11.9031888,21.906035 10.0722892,23.7367484 10.0722892,25.6379701 Z" id="Fill-1"></path>
                    </g>
                    <g id="airbnb" transform="translate(0.000000, 8.000000)" fill="#FF5A5F">
                        <path d="M43.2165349,6.78395411 C43.2165349,7.75679647 42.4738144,8.54041146 41.5517416,8.54041146 C40.6296689,8.54041146 39.8862251,7.75679647 39.8862251,6.78395411 C39.8862251,5.81111174 40.6036339,5.02749675 41.5517416,5.02749675 C42.4991262,5.05420223 43.2165349,5.83781722 43.2165349,6.78395411 Z M36.3512513,10.3243373 C36.3512513,10.4868592 36.3512513,10.756966 36.3512513,10.756966 C36.3512513,10.756966 35.5571839,9.67577573 33.8670788,9.67577573 C31.0748255,9.67577573 28.8972874,11.9190358 28.8972874,15.0267903 C28.8972874,18.1078393 31.0487905,20.3785678 33.8670788,20.3785678 C35.5832189,20.3785678 36.3512513,19.269909 36.3512513,19.269909 L36.3512513,19.7300062 C36.3512513,19.9459391 36.5052916,20.108461 36.7099556,20.108461 L38.7848001,20.108461 L38.7848001,9.94588255 C38.7848001,9.94588255 36.8893078,9.94588255 36.7099556,9.94588255 C36.5052916,9.94588255 36.3512513,10.1351099 36.3512513,10.3243373 Z M36.3512513,16.8381846 C35.9672351,17.4325722 35.1984795,17.9460804 34.2764067,17.9460804 C32.6369252,17.9460804 31.3821831,16.8648901 31.3821831,15.0267903 C31.3821831,13.1894535 32.6369252,12.1082632 34.2764067,12.1082632 C35.1731677,12.1082632 35.9925469,12.6484768 36.3512513,13.2161589 L36.3512513,16.8381846 Z M40.3223113,20.107698 L42.781172,20.107698 L42.781172,9.94588255 L40.3223113,9.94588255 L40.3223113,20.107698 Z M77.0555204,9.67577573 C75.3654153,9.67577573 74.5713479,10.756966 74.5713479,10.756966 L74.5713479,5.05420223 L72.111764,5.05420223 L72.111764,20.108461 C72.111764,20.108461 74.0072564,20.108461 74.1866086,20.108461 C74.3912725,20.108461 74.5453129,19.9184706 74.5453129,19.7300062 L74.5453129,19.269909 C74.5453129,19.269909 75.3393803,20.3785678 77.0302086,20.3785678 C79.8224619,20.3785678 82,18.1078393 82,15.0267903 C82,11.9457413 79.8224619,9.67577573 77.0555204,9.67577573 Z M76.6461924,17.9186119 C75.6980847,17.9186119 74.9553641,17.4051037 74.5713479,16.8107161 L74.5713479,13.1894535 C74.9553641,12.6484768 75.7747433,12.0815577 76.6461924,12.0815577 C78.285674,12.0815577 79.5404161,13.161985 79.5404161,15.0000848 C79.5404161,16.8381846 78.285674,17.9186119 76.6461924,17.9186119 Z M70.8309869,14.0814164 L70.8309869,20.1351665 L68.3721262,20.1351665 L68.3721262,14.3782287 C68.3721262,12.7026508 67.8593814,12.0273837 66.4759107,12.0273837 C65.7331901,12.0273837 64.9651578,12.4325439 64.478448,13.0269316 L64.478448,20.108461 L62.0188641,20.108461 L62.0188641,9.94588255 L63.9657032,9.94588255 C64.1710904,9.94588255 64.3244076,10.1351099 64.3244076,10.3243373 L64.3244076,10.756966 C65.0418164,9.97335104 65.9892009,9.67577573 66.9373087,9.67577573 C68.0134218,9.67577573 68.9094596,10.0000565 69.6268684,10.6486181 C70.4983175,11.4055276 70.8309869,12.37837 70.8309869,14.0814164 Z M56.0503414,9.67577573 C54.359513,9.67577573 53.5654457,10.756966 53.5654457,10.756966 L53.5654457,5.05420223 L51.106585,5.05420223 L51.106585,20.108461 C51.106585,20.108461 53.0020773,20.108461 53.1814295,20.108461 C53.3860935,20.108461 53.5401339,19.9184706 53.5401339,19.7300062 L53.5401339,19.269909 C53.5401339,19.269909 54.3342012,20.3785678 56.0250296,20.3785678 C58.8172828,20.3785678 60.9948209,18.1078393 60.9948209,15.0267903 C61.0201327,11.9457413 58.8425946,9.67577573 56.0503414,9.67577573 Z M55.6402902,17.9186119 C54.6929056,17.9186119 53.9501851,17.4051037 53.5654457,16.8107161 L53.5654457,13.1894535 C53.9501851,12.6484768 54.7695642,12.0815577 55.6402902,12.0815577 C57.2797717,12.0815577 58.5352371,13.161985 58.5352371,15.0000848 C58.5352371,16.8381846 57.2797717,17.9186119 55.6402902,17.9186119 Z M48.9803937,9.67577573 C49.7231143,9.67577573 50.1078536,9.81082914 50.1078536,9.81082914 L50.1078536,12.2166111 C50.1078536,12.2166111 48.0583209,11.4864071 46.7775438,13.0269316 L46.7775438,20.1351665 L44.3179599,20.1351665 L44.3179599,9.94588255 C44.3179599,9.94588255 46.2134522,9.94588255 46.3928044,9.94588255 C46.5981916,9.94588255 46.7515088,10.1351099 46.7515088,10.3243373 L46.7515088,10.756966 C47.2129068,10.1892839 48.2116381,9.67577573 48.9803937,9.67577573 Z M23.4407862,19.1890296 C23.3127808,18.8647488 23.1847754,18.5137625 23.05677,18.2161872 C22.8521061,17.7301475 22.6467189,17.2700503 22.4673667,16.8381846 L22.4420549,16.8107161 C20.674568,12.7568247 18.7783524,8.6487594 16.7808897,4.59486803 L16.7035079,4.43234613 C16.4988439,4.02718589 16.2941799,3.59455717 16.0887928,3.16269146 C15.832782,2.67588877 15.5767712,2.1623806 15.16672,1.67557791 C14.3473408,0.595150625 13.1685341,0 11.9137919,0 C10.6330148,0 9.48024305,0.595150625 8.63482889,1.62216696 C8.25008951,2.10820664 7.96876692,2.6217148 7.71275613,3.10851749 C7.50736895,3.5403832 7.30270495,3.97301193 7.09804096,4.37893517 L7.02065917,4.54069406 C5.04850825,8.59458543 3.12698094,12.7026508 1.35949402,16.7565421 L1.33418222,16.8107161 C1.15483003,17.2433448 0.949442842,17.702679 0.744778849,18.1894817 C0.616773454,18.486294 0.48876806,18.8105748 0.360762665,19.1623241 C0.0273700827,20.1618719 -0.0746003166,21.1080088 0.0534050783,22.0808512 C0.334727669,24.1081784 1.61550481,25.8104618 3.38299173,26.5673713 C4.0490537,26.8649466 4.74115067,27 5.45783624,27 C5.66322343,27 5.91923422,26.9725315 6.12389821,26.945826 C6.96931237,26.8374781 7.84076153,26.5406658 8.68617569,26.0271576 C9.73625384,25.4053015 10.7349852,24.5133386 11.8624451,23.2162155 C12.9891819,24.5133386 14.0139483,25.4053015 15.0387146,26.0271576 C15.8841288,26.5406658 16.7548547,26.8374781 17.6002689,26.945826 C17.8049329,26.9725315 18.0616669,27 18.2663309,27 C18.9837396,27 19.7011484,26.8649466 20.3411754,26.5673713 C22.1346973,25.8104618 23.3894394,24.0807099 23.6714852,22.0808512 C23.8761492,21.1347143 23.7741788,20.1893404 23.4407862,19.1890296 Z M11.887757,20.5945006 C10.5042862,18.7564008 9.60824845,17.027412 9.30089086,15.5677669 C9.17288547,14.9459108 9.14685047,14.4056972 9.22350907,13.9188945 C9.27485587,13.4870288 9.42889626,13.107811 9.63356025,12.7842932 C10.12027,12.0540892 10.9403724,11.594755 11.887757,11.594755 C12.8358647,11.594755 13.6812789,12.0273837 14.1419536,12.7842932 C14.3473408,13.107811 14.500658,13.4870288 14.5520048,13.9188945 C14.6286634,14.4056972 14.6033516,14.9726163 14.4753462,15.5677669 C14.1679886,16.9999435 13.2712277,18.7296954 11.887757,20.5945006 Z M22.1086623,21.8649183 C21.9293101,23.2703894 21.0332723,24.4866331 19.777807,25.0268468 C19.1630918,25.2969536 18.4970299,25.3785961 17.8309679,25.2969536 C17.1902177,25.2160742 16.5501907,25.0001413 15.8841288,24.5942181 C14.962056,24.0540044 14.0399832,23.2162155 12.9638701,21.9732663 C14.6546984,19.7834172 15.6794648,17.7835585 16.063481,16.0003956 C16.2428332,15.1626067 16.268145,14.4056972 16.1914864,13.7029616 C16.0887928,13.0269316 15.8580938,12.4058385 15.5001126,11.8648618 C14.7060452,10.6486181 13.3739213,9.94588255 11.887757,9.94588255 C10.4023158,9.94588255 9.07019187,10.6760866 8.27612451,11.8648618 C7.91742013,12.4058385 7.68672114,13.0269316 7.58475074,13.7029616 C7.48205715,14.4056972 7.50736895,15.1893122 7.71275613,16.0003956 C8.09677232,17.7835585 9.14685047,19.8108857 10.812367,21.9999717 C9.76156565,23.2429209 8.81418109,24.0807099 7.89210833,24.6216865 C7.22604636,25.0268468 6.58529619,25.2435426 5.94526921,25.3244221 C5.25317225,25.4053015 4.58711028,25.2969536 3.9984301,25.0543153 C2.74296476,24.5133386 1.8462038,23.2970949 1.66685161,21.8916238 C1.59019301,21.2163568 1.64153981,20.5403267 1.8975506,19.7834172 C1.97493239,19.5133103 2.10221459,19.2432035 2.23094318,18.9189227 C2.41029537,18.486294 2.61495936,18.0269598 2.81962336,17.5676256 L2.84565835,17.5134516 C4.61314527,13.4870288 6.50863759,9.37820042 8.4807885,5.37848302 L8.5581703,5.21672413 C8.76283429,4.81080088 8.96749828,4.37893517 9.17288547,3.97301193 C9.37754946,3.5403832 9.60824845,3.13522297 9.88957104,2.7842367 C10.4276276,2.13567513 11.1450364,1.78392585 11.9391037,1.78392585 C12.7331711,1.78392585 13.4505799,2.13567513 13.9886365,2.7842367 C14.269959,3.13522297 14.500658,3.5403832 14.7060452,3.97301193 C14.9107092,4.37893517 15.1153732,4.81080088 15.3207604,5.21672413 L15.397419,5.37848302 C17.3442581,9.40566891 19.2397504,13.5137342 21.0072373,17.5409201 L21.0072373,17.5676256 C21.2119013,18.0002543 21.3912535,18.486294 21.5966407,18.9189227 C21.7246461,19.2432035 21.8526515,19.5133103 21.9293101,19.7834172 C22.1346973,20.4861527 22.2113559,21.1621828 22.1086623,21.8649183 Z" id="Fill-2"></path>
                    </g>
                </g>
            </g>
        </g>
    </g>
</svg>