<?xml version="1.0" encoding="UTF-8"?>
<svg preserveAspectRatio="xMidYMid meet" width="940px" viewBox="0 0 940 50" version="1.1" xmlns="http://www.w3.org/2000/svg" xmlns:xlink="http://www.w3.org/1999/xlink">
    <!-- Generator: Sketch 52.3 (67297) - http://www.bohemiancoding.com/sketch -->
    <title>logobar-lg</title>
    <desc>Created with Sketch.</desc>
    <g id="Page-1" stroke="none" stroke-width="1" fill="none" fill-rule="evenodd">
        <g id="T1---LG" transform="translate(-129.000000, -660.000000)">
            <g id="logobar-3" transform="translate(0.000000, 591.000000)">
                <g id="logos" transform="translate(129.000000, 69.000000)">
                    <g id="logobar-lg">
                        <g id="airbnb" transform="translate(504.045155, 8.035714)" fill="#FF5A5F">
                            <path d="M53.1980974,7.94714336 C53.1980974,9.08679106 52.2838335,10.0047661 51.148793,10.0047661 C50.0137525,10.0047661 49.0985983,9.08679106 49.0985983,7.94714336 C49.0985983,6.80749565 49.9817043,5.88952059 51.148793,5.88952059 C52.3149914,5.92080504 53.1980974,6.83878009 53.1980974,7.94714336 Z M44.7471647,12.0945672 C44.7471647,12.2849554 44.7471647,12.6013752 44.7471647,12.6013752 C44.7471647,12.6013752 43.7696945,11.334802 41.6892321,11.334802 C38.2520625,11.334802 35.5715865,13.9626956 35.5715865,17.6033114 C35.5715865,21.2126427 38.2200143,23.8727145 41.6892321,23.8727145 C43.8017427,23.8727145 44.7471647,22.573963 44.7471647,22.573963 L44.7471647,23.1129494 C44.7471647,23.3659065 44.9367832,23.5562947 45.1887177,23.5562947 L47.7427813,23.5562947 L47.7427813,11.6512219 C47.7427813,11.6512219 45.4094942,11.6512219 45.1887177,11.6512219 C44.9367832,11.6512219 44.7471647,11.8728945 44.7471647,12.0945672 Z M44.7471647,19.7252907 C44.2744537,20.4215931 43.3281415,21.0231483 42.1931011,21.0231483 C40.1749546,21.0231483 38.6304093,19.7565751 38.6304093,17.6033114 C38.6304093,15.4509414 40.1749546,14.1843682 42.1931011,14.1843682 C43.2969836,14.1843682 44.3056117,14.8172079 44.7471647,15.4822259 L44.7471647,19.7252907 Z M49.6354057,23.5554008 L52.6621803,23.5554008 L52.6621803,11.6512219 L49.6354057,11.6512219 L49.6354057,23.5554008 Z M94.8527477,11.334802 C92.7722852,11.334802 91.7948151,12.6013752 91.7948151,12.6013752 L91.7948151,5.92080504 L88.7671502,5.92080504 L88.7671502,23.5562947 C88.7671502,23.5562947 91.1004374,23.5562947 91.3212139,23.5562947 C91.5731484,23.5562947 91.7627669,23.3337282 91.7627669,23.1129494 L91.7627669,22.573963 C91.7627669,22.573963 92.740237,23.8727145 94.8215897,23.8727145 C98.2587593,23.8727145 100.939235,21.2126427 100.939235,17.6033114 C100.939235,13.99398 98.2587593,11.334802 94.8527477,11.334802 Z M94.3488787,20.99097 C93.18179,20.99097 92.2675261,20.3894148 91.7948151,19.6931124 L91.7948151,15.4509414 C92.2675261,14.8172079 93.2761542,14.1530838 94.3488787,14.1530838 C96.3670252,14.1530838 97.9115705,15.4187631 97.9115705,17.5720269 C97.9115705,19.7252907 96.3670252,20.99097 94.3488787,20.99097 Z M87.1905568,16.4958419 L87.1905568,23.5875791 L84.1637822,23.5875791 L84.1637822,16.8435462 C84.1637822,14.8806706 83.5326106,14.089621 81.8296048,14.089621 C80.9153408,14.089621 79.9699189,14.5642508 79.3707955,15.2605532 L79.3707955,23.5562947 L76.3431307,23.5562947 L76.3431307,11.6512219 L78.739624,11.6512219 C78.9924487,11.6512219 79.181177,11.8728945 79.181177,12.0945672 L79.181177,12.6013752 C80.064283,11.6834002 81.2304815,11.334802 82.3975701,11.334802 C83.7222292,11.334802 84.8252214,11.7146846 85.7083274,12.4744497 C86.781052,13.3611404 87.1905568,14.5007881 87.1905568,16.4958419 Z M68.9960804,11.334802 C66.9147278,11.334802 65.9372576,12.6013752 65.9372576,12.6013752 L65.9372576,5.92080504 L62.910483,5.92080504 L62.910483,23.5562947 C62.910483,23.5562947 65.2437702,23.5562947 65.4645467,23.5562947 C65.7164811,23.5562947 65.9060997,23.3337282 65.9060997,23.1129494 L65.9060997,22.573963 C65.9060997,22.573963 66.8835698,23.8727145 68.9649225,23.8727145 C72.4020921,23.8727145 75.0825681,21.2126427 75.0825681,17.6033114 C75.1137261,13.99398 72.4332501,11.334802 68.9960804,11.334802 Z M68.4913213,20.99097 C67.3251228,20.99097 66.4108588,20.3894148 65.9372576,19.6931124 L65.9372576,15.4509414 C66.4108588,14.8172079 67.419487,14.1530838 68.4913213,14.1530838 C70.5094678,14.1530838 72.0549033,15.4187631 72.0549033,17.5720269 C72.0549033,19.7252907 70.5094678,20.99097 68.4913213,20.99097 Z M60.2932132,11.334802 C61.2074772,11.334802 61.6810784,11.493012 61.6810784,11.493012 L61.6810784,14.3112937 C61.6810784,14.3112937 59.1581727,13.4558875 57.5815793,15.2605532 L57.5815793,23.5875791 L54.5539144,23.5875791 L54.5539144,11.6512219 C54.5539144,11.6512219 56.8872016,11.6512219 57.1079781,11.6512219 C57.3608028,11.6512219 57.5495311,11.8728945 57.5495311,12.0945672 L57.5495311,12.6013752 C58.1174964,11.9363573 59.346901,11.334802 60.2932132,11.334802 Z M28.8548175,22.4792159 C28.6972472,22.0993333 28.5396769,21.6881663 28.3821066,21.3395682 C28.1301721,20.7701912 27.8773474,20.2312049 27.6565709,19.7252907 L27.6254129,19.6931124 C25.4496961,14.9441334 23.1155187,10.1316916 20.6567095,5.38271255 L20.5614551,5.19232435 C20.3095206,4.71769459 20.0575861,4.21088655 19.8047614,3.70497236 C19.4896208,3.13470158 19.1744801,2.53314636 18.669721,1.96287558 C17.6610928,0.697196245 16.2100215,0 14.6654762,0 C13.0888827,0 11.6698596,0.697196245 10.6291832,1.90030669 C10.155582,2.46968362 9.80928341,3.07123885 9.49414276,3.64150962 C9.24131806,4.14742382 8.98938358,4.65423186 8.73744911,5.12975545 L8.64219473,5.31924982 C6.21454345,10.0682289 3.84920811,14.8806706 1.67349131,19.6296497 L1.64233333,19.6931124 C1.42155683,20.1999204 1.16873213,20.7380129 0.916797653,21.3082837 C0.759227328,21.655988 0.601657002,22.0358706 0.444086677,22.4479314 C0.033691649,23.6188636 -0.0918304745,24.7272268 0.0657398508,25.8668745 C0.412038475,28.241811 1.98863196,30.235971 4.16434876,31.1226616 C4.98424859,31.4712597 5.83619662,31.6294697 6.7184124,31.6294697 C6.9712371,31.6294697 7.28637775,31.5972914 7.53831223,31.5660069 C8.57898855,31.4390815 9.65171309,31.0913772 10.6923894,30.489822 C11.9850002,29.7613413 13.2144048,28.7164407 14.60227,27.1969105 C15.989245,28.7164407 17.2506978,29.7613413 18.5121506,30.489822 C19.552827,31.0913772 20.6246613,31.4390815 21.6653376,31.5660069 C21.9172721,31.5972914 22.233303,31.6294697 22.4852374,31.6294697 C23.3683434,31.6294697 24.2514494,31.4712597 25.0393011,31.1226616 C27.2470661,30.235971 28.7916114,28.2096327 29.1388002,25.8668745 C29.3907347,24.7585113 29.2652126,23.6510419 28.8548175,22.4792159 Z M14.633428,24.1256716 C12.9304222,21.9724078 11.8274299,19.9469633 11.4490831,18.2370449 C11.2915127,17.5085642 11.2594645,16.8757245 11.3538287,16.3054537 C11.4170349,15.7995395 11.6066534,15.3553004 11.8585879,14.9763117 C12.4577112,14.1209055 13.4672295,13.582813 14.633428,13.582813 C15.8005167,13.582813 16.841193,14.089621 17.4082681,14.9763117 C17.6610928,15.3553004 17.8498211,15.7995395 17.9130273,16.3054537 C18.0073915,16.8757245 17.9762335,17.5398486 17.8186632,18.2370449 C17.4403163,19.9147851 16.3364338,21.9411234 14.633428,24.1256716 Z M27.2150179,25.6139174 C26.9942414,27.2603732 25.8912491,28.6851563 24.3458136,29.317996 C23.5891199,29.6344158 22.7692201,29.7300568 21.9493203,29.6344158 C21.1605784,29.5396686 20.3727268,29.2867115 19.552827,28.8111879 C18.4177865,28.1783483 17.282746,27.1969105 15.958087,25.7408429 C18.0394397,23.1755183 19.3008925,20.8327601 19.7736035,18.7438529 C19.99438,17.7624151 20.0255379,16.8757245 19.9311738,16.0524966 C19.8047614,15.2605532 19.5207788,14.5329664 19.080116,13.8992328 C18.1026458,12.4744497 16.4628462,11.6512219 14.633428,11.6512219 C12.8049,11.6512219 11.1651004,12.506628 10.1876302,13.8992328 C9.74607723,14.5329664 9.46209456,15.2605532 9.33657243,16.0524966 C9.21016008,16.8757245 9.24131806,17.7936996 9.49414276,18.7438529 C9.96685374,20.8327601 11.2594645,23.2076966 13.3096592,25.7721274 C12.0161582,27.2281949 10.8499597,28.2096327 9.71491926,28.8433662 C8.89501943,29.317996 8.10627758,29.5718469 7.31842595,29.6665941 C6.46647792,29.7613413 5.64657809,29.6344158 4.92193264,29.3501742 C3.37649714,28.7164407 2.27261463,27.2916576 2.05183813,25.6452019 C1.95747398,24.8541523 2.02068016,24.0622089 2.33582081,23.1755183 C2.43107519,22.8590984 2.58775528,22.5426786 2.74621584,22.162796 C2.96699234,21.655988 3.21892681,21.1178955 3.47086129,20.579803 L3.50290949,20.5163403 C5.6786263,15.7995395 8.01191343,10.9862039 10.4395647,6.30068761 L10.5348191,6.11119324 C10.7867536,5.63566965 11.038688,5.12975545 11.2915127,4.65423186 C11.5434472,4.14742382 11.8274299,3.67279407 12.1737285,3.26162705 C12.836058,2.50186191 13.719164,2.08980105 14.6966342,2.08980105 C15.6741043,2.08980105 16.5572103,2.50186191 17.2195398,3.26162705 C17.5658385,3.67279407 17.8498211,4.14742382 18.1026458,4.65423186 C18.3545803,5.12975545 18.6065148,5.63566965 18.8593395,6.11119324 L18.9537036,6.30068761 C21.350197,11.0183822 23.6834841,15.830824 25.8592009,20.5485186 L25.8592009,20.579803 C26.1111354,21.0866111 26.3319119,21.655988 26.5847366,22.162796 C26.7423069,22.5426786 26.8998772,22.8590984 26.9942414,23.1755183 C27.2470661,23.9987461 27.3414302,24.7906896 27.2150179,25.6139174 Z" id="Fill-2"></path>
                        </g>
                        <g id="dropbox-2017" transform="translate(178.626529, 11.607143)">
                            <path d="M14.5415151,4.88148149 L7.27110561,9.56686026 L14.5415151,14.2529419 L7.27110561,18.9383207 L0,14.2135808 L7.27110561,9.52820202 L0,4.88148149 L7.27110561,0.195399835 L14.5415151,4.88148149 Z M7.23212218,20.4220942 L14.5025317,15.7367155 L21.7736373,20.4220942 L14.5025317,25.1081759 L7.23212218,20.4220942 Z M14.5415151,14.2135808 L21.8119246,9.52820202 L14.5415151,4.88148149 L21.7736373,0.195399835 L29.0440467,4.88148149 L21.7736373,9.56686026 L29.0440467,14.2529419 L21.7736373,18.9383207 L14.5415151,14.2135808 Z" id="Fill-1" fill="#0061FF"></path>
                            <path d="M34.7293621,4.88148149 L40.6075063,4.88148149 C44.3589652,4.88148149 47.4525787,7.06813215 47.4525787,12.0662912 L47.4525787,13.1206069 C47.4525787,18.1574242 44.5524901,20.4220942 40.7237605,20.4220942 L34.7293621,20.4220942 L34.7293621,4.88148149 Z M38.0165005,7.6929899 L38.0165005,17.5719276 L40.5302356,17.5719276 C42.657617,17.5719276 44.0881696,16.1661734 44.0881696,13.0425875 L44.0881696,12.22233 C44.0881696,9.09804123 42.5803463,7.6929899 40.4146776,7.6929899 L38.0165005,7.6929899 Z M49.1936065,7.84902862 L51.8235957,7.84902862 L52.2482366,10.7772146 C52.7515405,8.7859638 54.0275517,7.73164814 56.3477618,7.73164814 L57.1601486,7.73164814 L57.1601486,11.0899949 L55.8068667,11.0899949 C53.1378941,11.0899949 52.4807449,12.0269301 52.4807449,14.6823998 L52.4807449,20.4614554 L49.2318938,20.4614554 L49.2318938,7.84902862 L49.1936065,7.84902862 Z M57.8172979,14.4089806 L57.8172979,14.0575421 C57.8172979,9.84027945 60.4862705,7.53624831 64.1214752,7.53624831 C67.8339507,7.53624831 70.4256525,9.84027945 70.4256525,14.0575421 L70.4256525,14.4089806 C70.4256525,18.5482239 67.9112214,20.7735328 64.1214752,20.7735328 C60.0992207,20.7348746 57.8172979,18.5482239 57.8172979,14.4089806 Z M67.0995307,14.3703224 L67.0995307,14.0575421 C67.0995307,11.7148527 65.9390776,10.3090985 64.0824918,10.3090985 C62.2648894,10.3090985 61.066149,11.5974722 61.066149,14.0575421 L61.066149,14.3703224 C61.066149,16.6349924 62.2266021,17.9233661 64.0824918,17.9233661 C65.9390776,17.884005 67.0995307,16.6349924 67.0995307,14.3703224 Z M72.1270008,7.84902862 L74.8342607,7.84902862 L75.1433436,10.2310791 C75.8011889,8.62992508 77.1934542,7.53624831 79.2428688,7.53624831 C82.4144492,7.53624831 84.5028471,9.84027945 84.5028471,14.0969032 L84.5028471,14.4483417 C84.5028471,18.5868821 82.182637,20.7735328 79.2428688,20.7735328 C77.270725,20.7735328 75.9174431,19.8759587 75.2595977,18.4308434 L75.2595977,24.7960985 L72.0887135,24.7960985 L72.1270008,7.84902862 Z M81.2157087,14.3703224 L81.2157087,14.0969032 C81.2157087,11.5974722 79.9390014,10.3477567 78.2376532,10.3477567 C76.4200509,10.3477567 75.2213104,11.7535109 75.2213104,14.0969032 L75.2213104,14.3309613 C75.2213104,16.5569731 76.3810674,17.9627273 78.1986698,17.9627273 C80.0552556,17.9233661 81.2157087,16.7130118 81.2157087,14.3703224 Z M89.298505,18.118766 L89.0277094,20.4220942 L86.2431788,20.4220942 L86.2431788,3.63176599 L89.4147592,3.63176599 L89.4147592,10.0743375 C90.1108918,8.43452524 91.502461,7.53624831 93.475301,7.53624831 C96.4533565,7.57560942 98.6573125,9.64487962 98.6573125,13.823484 L98.6573125,14.2135808 C98.6573125,18.3921852 96.5689145,20.7735328 93.3980302,20.7735328 C91.3096323,20.7348746 89.9556542,19.7585783 89.298505,18.118766 Z M95.3318868,14.2135808 L95.3318868,13.9015034 C95.3318868,11.5974722 94.0941629,10.3083956 92.3538313,10.3083956 C90.5745162,10.3083956 89.3367923,11.7535109 89.3367923,13.9401616 L89.3367923,14.2135808 C89.3367923,16.5562702 90.5362289,17.9233661 92.3148478,17.9233661 C94.2097209,17.9233661 95.3318868,16.7130118 95.3318868,14.2135808 Z M100.049578,14.4089806 L100.049578,14.0575421 C100.049578,9.84027945 102.71855,7.53624831 106.353755,7.53624831 C110.066231,7.53624831 112.657236,9.84027945 112.657236,14.0575421 L112.657236,14.4089806 C112.657236,18.5482239 110.104518,20.7735328 106.353755,20.7735328 C102.331501,20.7348746 100.049578,18.5482239 100.049578,14.4089806 Z M109.370098,14.3703224 L109.370098,14.0575421 C109.370098,11.7148527 108.209645,10.3090985 106.353755,10.3090985 C104.536153,10.3090985 103.336716,11.5974722 103.336716,14.0575421 L103.336716,14.3703224 C103.336716,16.6349924 104.497169,17.9233661 106.353755,17.9233661 C108.209645,17.884005 109.370098,16.6349924 109.370098,14.3703224 Z M116.911303,13.9015034 L112.541678,7.84902862 L116.293137,7.84902862 L118.806872,11.6361305 L121.359591,7.84902862 L125.072066,7.84902862 L120.624475,13.8621422 L125.303878,20.4220942 L121.62969,20.4220942 L118.767889,16.2441927 L115.983358,20.4220942 L112.154629,20.4220942 L116.911303,13.9015034 Z" id="Fill-2" fill="#000000"></path>
                        </g>
                        <g id="msft_logo_print" transform="translate(681.787394, 10.714286)">
                            <path d="M0,0 L13.2403166,0 C13.2395214,4.49481074 13.2403166,8.98962149 13.2395214,13.4844322 C8.82687772,13.4844322 4.41343886,13.4844322 0,13.4844322 L0,0" id="Fill-1" fill="#F25022"></path>
                            <path d="M13.9373741,0 L27.1772931,0 C27.1772931,4.49481074 27.1780883,8.98962149 27.1764979,13.4844322 C22.7639868,13.4836224 18.3506805,13.4844322 13.9381693,13.4844322 C13.936579,8.98962149 13.9373741,4.49481074 13.9373741,0" id="Fill-3" fill="#80BA01"></path>
                            <path d="M117.359027,4.97829671 C118.57129,4.17338827 120.137361,4.09845685 121.503625,4.48197679 C121.515471,5.31025095 121.505205,6.13933082 121.509153,6.96841068 C120.85998,6.67674216 120.096294,6.48659362 119.413162,6.77262214 C118.871395,6.9917764 118.549177,7.55899916 118.464674,8.12622193 C118.362797,8.84572467 118.429136,9.57489599 118.411761,10.2984273 C119.798559,10.3016502 121.185357,10.299233 122.572155,10.3000387 C122.582421,9.38152459 122.561098,8.46220473 122.584001,7.54369059 C123.52696,7.26974778 124.459653,6.96277069 125.397874,6.67432502 C125.405771,7.88450768 125.386817,9.09549606 125.40814,10.3064844 C126.345571,10.2927873 127.283792,10.3032616 128.222013,10.3000387 L128.222013,12.6559469 C127.280633,12.6164669 126.338464,12.6454726 125.397084,12.6422498 C125.401033,13.9966553 125.397874,15.3510608 125.398663,16.706272 C125.413669,17.4563919 125.359176,18.2105403 125.445259,18.9582431 C125.497382,19.3989687 125.654542,19.8872315 126.059683,20.1152486 C126.738076,20.5027971 127.598902,20.3335971 128.222013,19.9081801 L128.222013,22.287454 C127.409362,22.6476082 126.501152,22.7571853 125.622162,22.6935339 C124.788188,22.6306882 123.924203,22.321294 123.380067,21.6444941 C122.751427,20.8798713 122.589529,19.8445287 122.576893,18.8760602 C122.569785,16.7973177 122.577683,14.7185752 122.573734,12.6390269 C121.186146,12.6382212 119.798559,12.6374155 118.411761,12.6398326 C118.410182,15.9021693 118.410971,19.1645059 118.410971,22.4268425 C117.463273,22.4268425 116.514786,22.4268425 115.567088,22.4268425 C115.567088,19.1653116 115.563139,15.9045864 115.568668,12.6430555 C114.909228,12.6301641 114.248998,12.6462784 113.589559,12.6325812 C113.591928,11.8582899 113.595087,11.0831929 113.587979,10.3080959 C114.24426,10.2927873 114.90133,10.299233 115.559191,10.3040673 C115.607365,9.27436461 115.453364,8.21485049 115.755048,7.21173636 C116.010137,6.30611365 116.577176,5.48911949 117.359027,4.97829671" id="Fill-4" fill="#777777"></path>
                            <path d="M57.2207961,4.98987241 C57.8055671,4.89525757 58.4386662,5.10857102 58.8260971,5.59712761 C59.280382,6.13213149 59.3641509,6.983665 59.0274645,7.60898304 C58.6553376,8.31429361 57.8224819,8.64200499 57.0967537,8.47255843 C56.3436396,8.32805577 55.7161787,7.58059859 55.7500085,6.74712791 C55.7282608,5.86979036 56.4153264,5.08792778 57.2207961,4.98987241" id="Fill-5" fill="#777777"></path>
                            <path d="M35.5406821,5.67930599 C36.8788994,5.67930599 38.2163502,5.67930599 39.5545675,5.67930599 C40.8038768,9.03561794 42.0623835,12.3886863 43.3132258,15.7449982 C43.6328344,16.584279 43.9317489,17.4332905 44.2666864,18.266084 C45.8739267,14.0721131 47.5041604,9.88868394 49.0991376,5.68903678 C50.3860029,5.6671425 51.6736346,5.68417138 52.9612663,5.68092778 C52.9582005,11.3564116 52.9597334,17.0318953 52.9604999,22.7073791 C52.0315655,22.7049464 51.1033977,22.7154881 50.1752298,22.7017028 C50.1851936,18.5134082 50.1744634,14.3251137 50.1798285,10.1360082 C50.1813614,9.94787958 50.1752298,9.75975096 50.1629667,9.57162234 C50.1085489,9.65919945 50.0602627,9.75002017 50.0181081,9.84408448 C48.4231309,14.1313088 46.7974959,18.4063695 45.2117161,22.6976483 C44.5510384,22.7227862 43.8895943,22.6992701 43.2281501,22.7106227 C41.5825874,18.4233984 39.9577188,14.1264434 38.3205871,9.83597549 C38.277666,9.74677657 38.2316792,9.66001035 38.1818601,9.57648773 C38.1481364,11.4115527 38.1764949,13.2482395 38.1672976,15.0833045 C38.168064,17.6246627 38.1657647,20.1660209 38.168064,22.7073791 C37.2920146,22.7098118 36.4159651,22.7073791 35.5406821,22.70819 C35.5399157,17.0318953 35.5391493,11.3556007 35.5406821,5.67930599" id="Fill-6" fill="#777777"></path>
                            <path d="M64.7936972,10.2125623 C66.1272305,9.83411727 67.5651138,9.84940798 68.8978798,10.2247949 C69.1725662,10.3012484 69.4388125,10.4075189 69.6858767,10.5520161 C69.6705311,11.4289383 69.6858767,12.306625 69.6774366,13.1843117 C68.7866242,12.5061688 67.6564202,12.0764998 66.5239144,12.2187034 C65.6246618,12.2997442 64.7668424,12.7645818 64.2289789,13.4885969 C63.5376593,14.3861615 63.378065,15.5780723 63.4969934,16.6759453 C63.585998,17.5352831 63.9427833,18.3938565 64.6133863,18.9634354 C65.3100769,19.5804155 66.2868248,19.7990727 67.1983538,19.7302645 C68.099141,19.6270522 68.9492876,19.2470781 69.6774366,18.7164905 C69.6851094,19.5475405 69.6736002,20.3785906 69.6835749,21.2096407 C68.5541382,21.8793737 67.1998884,22.0521587 65.907021,21.9887023 C64.5842297,21.9191296 63.2652748,21.4198879 62.3077089,20.4932709 C61.2672768,19.494023 60.7025584,18.0689289 60.635805,16.6415412 C60.5682844,15.1575778 60.8713601,13.6093935 61.7284122,12.3700815 C62.4465866,11.3127289 63.5698851,10.5642486 64.7936972,10.2125623" id="Fill-7" fill="#777777"></path>
                            <path d="M83.9548557,10.0151271 C85.3552828,9.846982 86.8327009,9.921883 88.1326344,10.4798191 C89.2607562,10.959797 90.1749239,11.8471446 90.6814441,12.9095161 C91.2220025,14.0406742 91.3532926,15.3109342 91.2617137,16.5376293 C91.1717557,17.7352811 90.773023,18.9352258 89.9787993,19.8867744 C89.1659357,20.8971737 87.9405619,21.5819829 86.628472,21.8364935 C85.5068336,22.0566107 84.3333276,22.0558464 83.2116892,21.8334363 C81.8696132,21.5628755 80.6272205,20.828387 79.8402907,19.7599012 C78.9163978,18.5217417 78.6538177,16.9472919 78.7713304,15.4637934 C78.8507528,14.2049978 79.2656941,12.9362665 80.1182689,11.948796 C81.051887,10.8428597 82.483921,10.1901509 83.9548557,10.0151271 Z M84.82526,12.1994851 C84.1274778,12.2361713 83.4224016,12.4585815 82.9053458,12.9141019 C82.1921653,13.5232458 81.8663715,14.4312295 81.7780344,15.3139913 C81.6807825,16.2846473 81.7512901,17.3080396 82.2213409,18.1930944 C82.5868459,18.8801965 83.2586943,19.4197895 84.0504867,19.6162136 C84.8285017,19.8065233 85.6754035,19.7904731 86.4291056,19.5176194 C87.0733993,19.2806876 87.5839717,18.780838 87.8627604,18.1892729 C88.2841853,17.3118611 88.3255173,16.325155 88.2736496,15.3781922 C88.2015212,14.5130091 87.9405619,13.6057898 87.2662822,12.9805956 C86.6357659,12.3790947 85.7021478,12.1452201 84.82526,12.1994851 Z" id="Combined-Shape" fill="#777777"></path>
                            <path d="M95.9258716,10.0352567 C97.1983294,9.81121687 98.5303979,9.97561467 99.7348385,10.4321053 C99.736367,11.2762689 99.7348385,12.1196678 99.7356027,12.9630668 C98.8941756,12.3842336 97.8662742,12.0730247 96.845251,12.1089629 C96.3309182,12.1288435 95.7653814,12.3467662 95.53076,12.8361364 C95.3442857,13.3201541 95.4734421,13.954806 95.9296928,14.244605 C96.7099807,14.7668547 97.6408238,14.9886006 98.4493886,15.4565608 C99.0859996,15.8144128 99.7035047,16.282373 100.026014,16.9567863 C100.632055,18.2199731 100.375271,19.8891843 99.3099216,20.8312219 C98.2927196,21.7824352 96.8276735,22.0454717 95.4803203,21.9950054 C94.5234931,21.9330694 93.5620805,21.7442031 92.6824415,21.352707 C92.6862627,20.4649589 92.6770918,19.5779754 92.6870269,18.6909919 C93.4268102,19.2285345 94.2804651,19.6131489 95.1837955,19.7691356 C95.8127642,19.8715975 96.4967581,19.8761854 97.0829293,19.5947975 C97.6438807,19.3157036 97.7447603,18.5181831 97.4115521,18.0303422 C97.0997426,17.6541388 96.6419635,17.4469211 96.2101685,17.2435267 C95.3993109,16.8787929 94.5471845,16.5737012 93.8349138,16.0269829 C93.3343373,15.6362514 92.9552748,15.08571 92.8070124,14.4648215 C92.5869116,13.5495464 92.6556931,12.5180457 93.1876034,11.7182313 C93.7951734,10.7861341 94.8505874,10.2271815 95.9258716,10.0352567" id="Fill-9" fill="#777777"></path>
                            <path d="M106.28786,10.0111477 C107.745351,9.84069544 109.292871,9.93318297 110.623024,10.5660728 C111.782853,11.11259 112.682329,12.1001428 113.131661,13.2420963 C113.482854,14.1157594 113.606137,15.0589794 113.58586,15.9892052 C113.588293,17.3788112 113.190058,18.8051064 112.264628,19.9073132 C111.398406,20.9743594 110.073119,21.6676336 108.674025,21.8854762 C107.305751,22.0941464 105.860426,22.0398768 104.560282,21.5575658 C103.243106,21.06914 102.148163,20.0724149 101.593391,18.8448531 C101.015099,17.5935962 100.954269,16.1856456 101.134326,14.8487804 C101.323305,13.5119153 101.965672,12.2048601 103.060616,11.3159097 C103.957658,10.5737164 105.112621,10.1533186 106.28786,10.0111477 Z M107.076219,12.2018027 C106.268394,12.2446068 105.467058,12.5725171 104.944729,13.1656603 C104.372114,13.8008432 104.12636,14.6393459 104.059853,15.4564464 C103.990912,16.3002996 104.059853,17.1739627 104.406179,17.962782 C104.694109,18.6247175 105.240769,19.2002804 105.9464,19.4815648 C106.600121,19.7467976 107.336572,19.7941879 108.035714,19.6955855 C108.687002,19.6053911 109.318014,19.3118769 109.742203,18.8303303 C110.163148,18.3510767 110.385381,17.7472326 110.497309,17.1418596 C110.638435,16.3293452 110.640057,15.4923713 110.472977,14.6836787 C110.324551,13.9942262 110.000934,13.3093599 109.416153,12.8522728 C108.781897,12.3271577 107.901076,12.1475331 107.076219,12.2018027 Z" id="Combined-Shape" fill="#777777"></path>
                            <path d="M76.0849585,10.3392388 C76.8761379,9.8694668 77.8814293,9.83012241 78.7450407,10.1173365 C78.7410609,11.0623887 78.7450407,12.0074409 78.7426528,12.9524931 C78.1775246,12.5905248 77.4723084,12.4355079 76.8052979,12.5023933 C75.9918317,12.5936723 75.347108,13.2113792 75.0128068,13.9195782 C74.6498513,14.6694823 74.5813991,15.5177473 74.6044818,16.3376844 C74.6044818,18.2254282 74.6052778,20.113172 74.6044818,22.0009158 C73.6620709,22.0009158 72.7204559,22.0009158 71.7788409,22.0009158 C71.776453,18.0554604 71.7820247,14.1092182 71.776453,10.1637628 C72.7196599,10.1519595 73.6628668,10.1566808 74.6060737,10.1614022 C74.6020939,10.8389125 74.6060737,11.5164229 74.6036859,12.1947202 C74.9101286,11.4574063 75.3662109,10.7413385 76.0849585,10.3392388" id="Fill-11" fill="#777777"></path>
                            <path d="M55.7487014,9.94200043 C56.6775871,9.93799308 57.6072507,9.92837544 58.5361364,9.94680925 C58.525245,13.9645776 58.5353585,17.9831474 58.5314687,22.0009158 C57.6041389,22.0009158 56.6768091,22.0009158 55.7502573,22.0009158 C55.7479234,17.9815445 55.7510353,13.9621732 55.7487014,9.94200043" id="Fill-12" fill="#777777"></path>
                            <path d="M125.436407,12.7814273 C126.364683,12.7843988 127.293738,12.7576555 128.222013,12.794056 L128.222013,19.4806048 C127.607576,19.8728387 126.758733,20.0288409 126.089783,19.6715217 C125.690281,19.4612902 125.535309,19.0111126 125.483911,18.6047642 C125.399027,17.9153833 125.452761,17.2200595 125.437965,16.5284501 C125.437186,15.2789472 125.440301,14.0301872 125.436407,12.7814273" id="Fill-15" fill="#FEFEFE"></path>
                            <path d="M0,14.1941392 C4.41332105,14.1957588 8.82664211,14.1933294 13.2399632,14.1957588 C13.2407584,18.6902997 13.2399632,23.1840306 13.2399632,27.6785714 L0,27.6785714 L0,14.1941392" id="Fill-16" fill="#02A4EF"></path>
                            <path d="M13.9379706,14.1951515 C18.3506142,14.1935318 22.7640531,14.1943417 27.1774919,14.1943417 C27.1774919,18.6890849 27.1774919,23.1838282 27.1774919,27.6785714 L13.9371753,27.6785714 C13.9379706,23.1838282 13.9363801,18.6890849 13.9379706,14.1951515" id="Fill-17" fill="#FFB902"></path>
                        </g>
                        <g id="General_Electric_Security" transform="translate(380.244591, 0.000000)" fill="#3B73B9">
                            <path d="M41.5742739,7.22437263 C36.8047103,2.40857298 31.0689667,0 24.365443,0 C17.660586,0 11.9232423,2.40857298 7.15367872,7.22437263 C2.38411511,12.0401723 0,17.8323258 0,24.6008333 C0,31.4159235 2.38411511,37.2193862 7.15367872,42.0125676 C11.9232423,46.805749 17.660586,49.2013973 24.365443,49.2013973 C31.0689667,49.2013973 36.8047103,46.805749 41.5742739,42.0125676 C46.3438375,37.2193862 48.729286,31.4159235 48.729286,24.6008333 C48.729286,17.8323258 46.3438375,12.0401723 41.5742739,7.22437263 Z M40.7792756,41.1417013 C36.2623348,45.724896 30.7901691,48.0158214 24.3641103,48.0158214 C17.9828026,48.0158214 12.5218247,45.724896 7.9825083,41.1417013 C3.44319191,36.5582378 1.17419966,31.0444806 1.17419966,24.601505 C1.17419966,18.1131033 3.44319191,12.587788 7.9825083,8.02717195 C12.5218247,3.46655586 17.9828026,1.18557584 24.3641103,1.18557584 C30.7451515,1.18557584 36.2061295,3.47811398 40.7454458,8.0613087 C45.2847622,12.6445034 47.5550864,18.1585294 47.5550864,24.601505 C47.5550864,31.0444806 45.29595,36.5582378 40.7792756,41.1417013 Z M42.7585538,13.2018967 C40.5541649,9.56941323 37.4498948,7.14058497 33.4476094,5.91406705 C31.5129716,5.32367081 29.8723411,5.02833821 28.5227859,5.02833821 C27.0380887,5.02833821 25.8023514,5.40301791 24.8126421,6.1526463 C23.8229327,6.90200572 23.1045738,7.27534056 22.6546333,7.27534056 C21.5300484,7.27534056 20.9676227,6.7304008 20.9676227,5.6402523 C20.9676227,4.82391855 21.3935735,4.15390624 22.2484073,3.63156023 C23.1032411,3.10921422 24.2504829,2.84804121 25.6898663,2.84804121 C27.9830172,2.84804121 29.7148086,3.14337382 30.8847074,3.73377005 L30.9521452,3.5293504 C28.8375844,2.75712826 26.5447,2.37115168 24.0718927,2.37115168 C19.932866,2.37115168 16.245379,3.39324995 13.0078327,5.43583265 C9.45362204,7.66158612 7.07064293,10.7956622 5.85756263,14.836985 C5.2727465,16.7448121 4.98033844,18.4014182 4.98033844,19.809493 C4.98033844,21.3084808 5.35004672,22.5675445 6.09212881,23.5896428 C6.83447744,24.6117411 7.20578504,25.3484587 7.20578504,25.8024856 C7.20578504,26.8926341 6.66574973,27.4378428 5.58621221,27.4378428 C3.7416691,27.4378428 2.82099686,25.8495559 2.82099686,22.6697544 C2.82099686,20.8073837 3.09074796,19.0601336 3.63051672,17.4247764 L3.42820339,17.3567262 C2.70824516,20.2637888 2.34839933,22.5788414 2.34839933,24.3034977 C2.34839933,28.5279913 3.35943286,32.2739814 5.38363233,35.5430821 C7.58828783,39.1314539 10.6909586,41.5376884 14.6948433,42.7625925 C16.5828345,43.3532577 18.2247977,43.6483214 19.6194002,43.6483214 C21.1027648,43.6483214 22.338502,43.2636896 23.3282113,42.4914675 C24.3179207,41.7192454 25.0376124,41.3332688 25.4875529,41.3332688 C26.6121378,41.3332688 27.1745635,41.9010713 27.1745635,43.0366762 C27.1745635,43.8088984 26.7472799,44.4547031 25.8924461,44.9770491 C25.0376124,45.4993951 23.8919698,45.7605681 22.4523199,45.7605681 C20.3377592,45.7605681 18.6073005,45.4880982 17.2577453,44.9428895 L17.190041,45.1473092 C18.7632337,45.8740748 21.0563846,46.2374577 24.07056,46.2374577 C28.2079875,46.2374577 31.8954744,45.2169732 35.13462,43.1727767 C38.6872314,40.9470232 41.0699439,37.814292 42.2846236,33.7716244 C42.8697062,31.8196857 43.1621143,30.1845974 43.1621143,28.8671665 C43.1621143,27.3243361 42.7908067,26.0424097 42.0484581,25.0205804 C41.306376,23.9984821 40.9364011,23.2830133 40.9364011,22.874174 C40.9364011,21.738569 41.4764365,21.1707666 42.555974,21.1707666 C43.3644276,21.1707666 44.0278767,21.6137655 44.5452551,22.4994943 C45.0626334,23.3852231 45.3214559,24.5533739 45.3214559,26.0069052 C45.3214559,27.596806 45.0514382,29.3456699 44.5116695,31.2518832 L44.7139828,31.3202024 C45.433941,29.1412502 45.7937869,26.8033349 45.7937869,24.3051116 C45.7937869,20.1274194 44.7816871,16.4268857 42.7585538,13.2018967 Z M35.7172658,35.4056012 C34.4788278,36.6999457 32.938117,37.3456389 31.091932,37.3456389 C28.8855808,37.3456389 27.1309047,36.5283705 25.8265696,34.8932958 C24.6558962,33.4868088 24.0705595,31.8065544 24.0705595,29.8536083 C24.0705595,26.3126497 25.6675629,23.7024466 28.8645044,22.0221922 C28.6393339,21.8403977 28.4141633,21.5679749 28.1889928,21.2046549 C26.2979871,22.5673067 24.2279655,23.8842411 21.9781275,25.1543822 C21.7980445,28.0609426 21.5053761,30.1260311 21.1001225,31.3523371 C19.7941867,35.3488577 17.5894363,37.3456389 14.4837368,37.3456389 C13.2231553,37.3456389 12.2549753,36.959729 11.5794637,36.1876403 C10.9042188,35.4155515 10.567797,34.4858717 10.567797,33.3959116 C10.567797,31.6702086 11.3769703,30.0593373 12.9979847,28.5606085 C13.8533127,27.7885197 14.9100668,27.016431 16.1709152,26.2443423 C16.8013393,25.8810223 18.1056744,25.1785856 20.086855,24.134074 C20.17703,23.5889595 20.2445278,23.157601 20.2896153,22.8397295 C19.6141036,23.4754724 18.7136882,23.7933438 17.5894363,23.7933438 C16.0583299,23.7933438 15.1128271,22.9545613 14.7526609,21.2743069 C12.5463097,21.0925124 11.4220577,19.8664753 11.3769703,17.5956578 C11.3318828,15.6440563 11.872132,14.6675832 12.9979847,14.6675832 C13.3581509,14.6675832 13.538234,14.8719676 13.538234,15.2807362 C13.538234,15.3261848 13.4819413,15.5873127 13.3693561,16.0641199 C13.2567708,16.5411959 13.2004782,16.9612595 13.2004782,17.322966 C13.2004782,18.6856179 13.6959067,19.3668094 14.686497,19.3668094 C14.686497,17.5061051 15.2590278,15.6908495 16.4072909,13.9196979 C17.555554,12.1485463 18.8486838,11.2629705 20.2896153,11.2629705 C21.8204548,11.2629705 22.5858746,11.9896106 22.5858746,13.4415461 C22.5858746,14.9857236 21.9669224,16.5296321 20.7284844,18.0724649 C19.4903132,19.6166423 18.1971833,20.6143606 16.8464268,21.0685779 C17.0265099,21.7497694 17.4090864,22.0902307 17.9946899,22.0902307 C18.9836795,22.0902307 19.9294491,21.5225263 20.8298645,20.3871175 C21.2802056,18.0724649 22.1568767,16.9144663 23.4625457,16.9144663 C24.0030617,16.9144663 24.2730529,17.2094789 24.2730529,17.8000421 C24.2730529,18.5721308 23.6426288,19.6392322 22.3833812,21.0002705 C22.2483856,21.681462 22.180621,22.3629224 22.180621,23.0441139 C24.4758131,21.6376269 26.2542336,20.4793594 27.5150819,19.5711937 C27.424907,19.2533223 27.3800863,18.7310665 27.3800863,18.0044264 C27.3800863,16.3252478 27.8515038,14.7826839 28.7970066,13.3748523 C29.7425095,11.9667518 30.8907725,11.2629705 32.241529,11.2629705 C33.8161221,11.2629705 34.604219,12.0350592 34.604219,13.5776231 C34.604219,15.4851206 33.028292,17.6411064 29.8775051,20.0466562 C30.1477631,20.6823991 30.5079293,21.1137576 30.9582703,21.3410007 C31.0484453,21.1592062 31.6097709,21.0685779 32.6454487,21.0685779 C33.9511177,21.0685779 34.604219,21.4090392 34.604219,22.0902307 C34.604219,22.8623194 33.8387992,23.2484982 32.3090268,23.2484982 C31.9939481,23.2939468 31.5211967,23.2484982 30.8907725,23.1121524 C28.0089097,23.8842411 26.569579,26.0415715 26.569579,29.5811855 C26.569579,31.125094 27.0071142,32.4535922 27.8851193,33.5664111 C28.7631243,34.6789611 29.8775051,35.234026 31.2285284,35.234026 C32.3541143,35.234026 33.2982832,34.8491918 34.063703,34.0771031 C34.8291227,33.3052833 35.211966,32.3059514 35.211966,31.0799143 C35.2570535,28.8558901 34.4916337,27.7430711 32.9170406,27.7430711 C31.9264503,27.7430711 31.4086114,28.242737 31.363524,29.2418 C31.363524,29.7414659 31.5211967,30.1956832 31.8362754,30.6044518 C32.1516209,31.0132205 32.3090268,31.3523371 32.3090268,31.62476 C32.3090268,32.2150542 31.9939481,32.5103358 31.363524,32.5103358 C30.6880123,32.5103358 30.1253528,32.2150542 29.6750117,31.62476 C29.2246706,31.0344657 28.9995,30.3078256 28.9995,29.4448397 C28.9995,28.4016728 29.3922145,27.5160969 30.1800447,26.7894568 C30.9681416,26.0628167 31.9248496,25.6994967 33.0507023,25.6994967 C34.4465463,25.6994967 35.5481211,26.2217525 36.3586284,27.266264 C37.1691356,28.3107755 37.5743892,29.5811855 37.5743892,31.0799143 C37.5743892,32.6692715 36.955437,34.1112568 35.7172658,35.4056012 Z M32.4309006,13.0413342 C31.9201817,13.0413342 31.3779526,13.5179502 30.8034569,14.4709256 C30.2292132,15.4241576 29.9420914,16.5274543 29.9420914,17.7836376 C31.8990068,16.052121 32.8775906,14.7092336 32.8775906,13.7562582 C32.8775906,13.2796422 32.7286099,13.0413342 32.4309006,13.0413342 Z M20.639451,13.0413342 C19.9305153,13.0413342 19.1507421,13.748839 18.3001313,15.1638485 C17.4495206,16.578858 17.0258951,17.8462491 17.0258951,18.9692134 C18.1598562,18.385389 19.1272229,17.5331915 19.9305153,16.4102272 C20.7338077,15.2872629 21.1355939,14.3214923 21.1355939,13.5131814 C21.1355939,13.1987939 20.9701196,13.0413342 20.639451,13.0413342 Z M12.9161963,33.1953672 C12.9161963,34.3813572 13.4459781,34.9744872 14.5052689,34.9744872 C15.8858133,34.9744872 17.1066862,33.9951204 18.1662499,32.0336858 C19.0399396,30.3917744 19.638776,28.4090022 19.9613943,26.0826684 C15.2640497,28.3633561 12.9161963,30.7337155 12.9161963,33.1953672 Z" id="Fill-1"></path>
                        </g>
                        <path d="M899.096689,15.9654082 C899.011715,16.7363109 899.011715,17.4232538 898.934465,18.1101968 C898.772243,20.4229047 898.525046,22.6516529 898.362823,24.9719936 C898.341823,26.1932145 898.149442,27.4056515 897.79118,28.5746277 C896.732868,31.4063592 894.778468,33.0321242 891.935704,33.3755956 C890.466309,33.6112649 888.960433,33.3071682 887.702458,32.5207333 C886.071907,31.421538 885.119937,29.5777182 885.176415,27.628173 C885.173828,26.225221 885.256375,24.8233776 885.423612,23.4301882 L885.91028,18.0262371 C885.98753,17.3392941 885.98753,16.7363109 886.072504,16.0493679 L889.324687,16.0493679 C889.247439,16.5683914 889.162465,17.2553344 889.085215,17.8506849 L888.598546,23.2546362 C888.513573,24.2010909 888.428599,25.1399129 888.35135,26.1703274 C888.295984,26.7714907 888.321963,27.3772637 888.428599,27.9716445 C888.76077,29.7729615 890.143527,30.2919851 891.603533,30.116433 C893.480685,29.8569212 894.616246,28.490668 894.778468,26.4298391 C895.025665,23.8576194 895.272862,21.2853997 895.435085,18.6215876 C895.512334,17.7667253 895.597308,16.8202706 895.674557,15.8814485 C896.895092,15.9654082 897.953403,15.9654082 899.096689,15.9654082 Z M939.472383,32.750499 L936.123781,32.750499 C935.895132,31.9123151 935.659107,30.9843257 935.349324,30.1461417 L929.286438,30.1461417 C928.895522,30.9843257 928.511981,31.8299934 928.121065,32.750499 L924.853597,32.750499 C925.008488,31.9946367 933.247229,15.4255364 933.564388,15.1785714 C935.504216,21.0608266 937.45142,26.8682439 939.472383,32.750499 Z M930.422658,27.1274822 L934.599454,27.1274822 C934.012959,25.2531433 933.513645,23.3788044 932.927151,21.5044654 C932.174218,23.3788044 931.339387,25.2531433 930.422658,27.1274822 Z M913.715475,17.3437057 C913.559987,18.6783138 913.478541,19.9383629 913.323054,21.190956 C913.124648,21.0456292 912.943313,20.8780353 912.78255,20.6914099 C911.744296,19.6828183 910.314589,19.1910806 908.880554,19.3493459 C905.134047,19.5208318 903.727255,22.622491 903.727255,25.2991631 C903.728984,25.9206257 903.808591,26.5393843 903.964188,27.1407732 C904.370258,28.7684075 905.736322,29.9716954 907.392317,30.1604173 C909.265777,30.4315778 911.154131,29.7764446 912.464171,28.4008222 C912.564328,28.3392887 912.646174,28.2517199 912.701103,28.1473213 C912.545616,29.5714003 912.464171,30.8314493 912.390129,32.1735133 C911.524323,32.7025998 910.571421,33.0712736 909.576546,33.2620764 C907.929085,33.6363667 906.205293,33.458332 904.667584,32.7550745 C902.398183,31.7705091 900.842601,29.6180639 900.610101,27.1407732 C900.192797,24.3977073 900.862926,21.5993796 902.475951,19.3493459 C903.789721,17.4778423 905.834234,16.2599215 908.095713,16.0016417 C909.721556,15.7016185 911.40039,15.9671661 912.856591,16.7546888 C913.249012,17.0081897 913.478541,17.1722198 913.715475,17.3437057 Z M924.853597,29.612071 C924.765715,30.7135385 924.685822,31.7320187 924.518047,32.750499 L914.411607,32.750499 C915.002814,27.0696425 915.506139,21.4793177 916.009463,15.8814485 L919.380939,15.8814485 L918.118634,29.612071 L924.853597,29.612071 Z" id="logo-ucla" fill="#536895" fill-rule="nonzero"></path>
                        <g id="zendesk-logo" transform="translate(0.000000, 11.607143)" fill="#000000" fill-rule="nonzero">
                            <path d="M68.9918353,17.7628968 C70.644498,17.7628968 71.8467543,17.0448908 72.5681081,16.2946428 L74.34041,18.3172123 C73.1686497,19.5895336 71.5464834,20.5357143 69.0211586,20.5357143 C64.6953815,20.5357143 61.9002822,17.5024802 61.9002822,13.3928571 C61.9002822,9.31547618 64.845517,6.25 68.6293989,6.25 C72.9270256,6.25 75.3620345,9.70610118 75.1520795,14.5014881 L64.9956525,14.5014881 C65.35457,16.4918155 66.6764654,17.7628968 68.9918353,17.7628968 Z M72.0872055,12.218502 C71.815085,10.359623 70.7653101,8.9905754 68.6610682,8.9905754 C66.7081347,8.9905754 65.35457,10.1636905 64.9956525,12.218502 L72.0872055,12.218502 Z" id="Fill-1"></path>
                            <polygon id="Fill-3" points="0 17.9108984 7.78493041 9.71440194 0.182212924 9.71440194 0.182212924 7.14285714 11.3918119 7.14285714 11.3918119 9.76767311 3.60688149 17.9641695 11.4957667 17.9641695 11.4957667 20.5357143 0 20.5357143"></polygon>
                            <path d="M21.2401166,17.7628968 C22.8927624,17.7628968 24.0961793,17.0448908 24.8163529,16.2946428 L26.5898095,18.3172123 C25.4180614,19.5895336 23.7947387,20.5357143 21.2706126,20.5357143 C16.9437068,20.5357143 14.1486359,17.5024802 14.1486359,13.3928571 C14.1486359,9.31547618 17.0938406,6.25 20.8788569,6.25 C25.1764397,6.25 27.6114238,9.70610118 27.4002981,14.5014881 L17.2439746,14.5014881 C17.6040613,16.4918155 18.9259434,17.7628968 21.2401166,17.7628968 Z M24.3366282,12.218502 C24.0645105,10.359623 23.0147463,8.9905754 20.9093529,8.9905754 C18.9564393,8.9905754 17.6040613,10.1636905 17.2439746,12.218502 L24.3366282,12.218502 Z" id="Fill-5"></path>
                            <path d="M45.098777,13.3204972 C45.098777,8.88074954 48.3239682,6.10528016 51.8748502,6.10528016 C53.6630993,6.10528016 55.3696206,6.91045474 56.3723086,8.18719575 L56.3723086,0 L59.247413,0 L59.247413,20.2585437 L56.3723086,20.2585437 L56.3723086,18.3434322 C55.3427847,19.702948 53.6350434,20.5357143 51.8455746,20.5357143 C48.4044761,20.5357143 45.098777,17.7326533 45.098777,13.3204972 M56.5357638,13.2929056 C56.5357638,10.8234527 54.720679,8.79672043 52.2529929,8.79672043 C49.8426382,8.79672043 47.9714416,10.7670152 47.9714416,13.2929056 C47.9714416,15.8175418 49.8426382,17.8154282 52.2529929,17.8154282 C54.720679,17.8154282 56.5357638,15.7899501 56.5357638,13.2929056" id="Fill-7"></path>
                            <path d="M77.8174976,17.3545326 L80.2361067,15.9840037 C80.9179003,17.2442458 82.0262404,17.9852732 83.4635658,17.9852732 C84.976898,17.9852732 85.7562529,17.1364375 85.7562529,16.176076 C85.7562529,15.0794052 84.2951045,14.8315699 82.708034,14.4759264 C80.5639576,13.9814951 78.3472775,13.2144451 78.3472775,10.3916019 C78.3472775,8.22428289 80.2361067,6.22301346 83.2117219,6.25027535 C85.5543239,6.25027535 87.2945425,7.26516058 88.2780951,8.90954729 L86.0330542,10.2540534 C85.4544938,9.29369189 84.4709414,8.69021311 83.2117219,8.69021311 C81.7743966,8.69021311 81.0449567,9.4585023 81.0449567,10.335839 C81.0449567,11.3234623 82.2032118,11.5960811 84.0183031,12.0359886 C86.0841037,12.5291807 88.4289746,13.2689688 88.4289746,16.1215523 C88.4289746,18.012535 86.9167767,20.5627594 83.3365094,20.5354975 C80.7171058,20.5354975 78.8770571,19.3843029 77.8174976,17.3545326" id="Fill-10"></path>
                            <polygon id="Fill-12" points="96.1400394 14.5621064 93.9039359 17.0381377 93.9039359 20.5357143 91.0818438 20.5357143 91.0818438 0.892857143 93.9039359 0.892857143 93.9039359 13.7545992 99.8944404 7.0817192 103.328884 7.0817192 98.1364749 12.8400729 103.4619 20.5357143 100.267124 20.5357143"></polygon>
                            <path d="M37.1395676,6.25 C33.7710658,6.25 30.9501411,8.54614439 30.9501411,12.3561745 L30.9501411,20.5357143 L33.8384598,20.5357143 L33.8384598,12.7346459 C33.8384598,10.4385015 35.0948785,9.0638528 37.2322345,9.0638528 C39.3707939,9.0638528 40.4418787,10.4385015 40.4418787,12.7346459 L40.4418787,20.5357143 L43.3301976,20.5357143 L43.3301976,12.3561745 C43.3301976,8.54614439 40.5092729,6.25 37.1395676,6.25" id="Fill-14"></path>
                        </g>
                    </g>
                </g>
            </g>
        </g>
    </g>
</svg>