<?xml version="1.0" encoding="UTF-8" standalone="no"?>
<svg width="41px" height="41px" viewBox="0 0 41 41" version="1.1" xmlns="http://www.w3.org/2000/svg" xmlns:xlink="http://www.w3.org/1999/xlink">
    <!-- Generator: Sketch 49.3 (51167) - http://www.bohemiancoding.com/sketch -->
    <title>Mobile Developers</title>
    <desc>Created with Sketch.</desc>
    <defs></defs>
    <g id="Symbols" stroke="none" stroke-width="1" fill="none" fill-rule="evenodd">
        <g id="icon-small/Mobile-Developers">
            <g id="Mobile-Developers" transform="translate(1.000000, 1.000000)">
                <path d="M36.226,0.0001 L10.959,0.0001 C9.792,0.0001 8.847,0.9451 8.847,2.1121 L8.847,36.2881 C8.847,37.4551 9.792,38.4001 10.959,38.4001 L36.226,38.4001 C37.393,38.4001 38.338,37.4551 38.338,36.2881 L38.338,2.1121 C38.338,0.9451 37.393,0.0001 36.226,0.0001" id="Fill-1" fill="#FFFFFF"></path>
                <path d="M36.226,0.0001 L10.959,0.0001 C9.792,0.0001 8.847,0.9451 8.847,2.1121 L8.847,36.2881 C8.847,37.4551 9.792,38.4001 10.959,38.4001 L36.226,38.4001 C37.393,38.4001 38.338,37.4551 38.338,36.2881 L38.338,2.1121 C38.338,0.9451 37.393,0.0001 36.226,0.0001 Z" id="Stroke-3" stroke="#909090" stroke-width="2" stroke-linecap="round" stroke-linejoin="round"></path>
                <path d="M24.8706,34.4759 C24.8696,35.1819 24.2966,35.7529 23.5906,35.7509 C22.8846,35.7489 22.3136,35.1739 22.3146,34.4679 C22.3156,33.7619 22.8886,33.1919 23.5946,33.1939 C24.3006,33.1959 24.8716,33.7699 24.8706,34.4759" id="Fill-5" fill="#FFFFFF"></path>
                <path d="M24.8706,34.4759 C24.8696,35.1819 24.2966,35.7529 23.5906,35.7509 C22.8846,35.7489 22.3136,35.1739 22.3146,34.4679 C22.3156,33.7619 22.8886,33.1919 23.5946,33.1939 C24.3006,33.1959 24.8716,33.7699 24.8706,34.4759 Z" id="Stroke-7" stroke="#E0E0E0" stroke-width="1.5" stroke-linecap="round" stroke-linejoin="round"></path>
                <path d="M16.1884,38.4002 L1.6244,38.3572 C0.7264,38.3542 -0.0016,37.6232 0.0004,36.7242 L0.0484,9.0332 C0.0494,8.1342 0.7784,7.4082 1.6774,7.4102 L16.2414,7.4542 C17.1394,7.4572 17.8664,8.1872 17.8654,9.0862 L17.8174,36.7772 C17.8154,37.6762 17.0864,38.4032 16.1884,38.4002" id="Fill-9" fill="#FFFFFF"></path>
                <path d="M16.1884,38.4002 L1.6244,38.3572 C0.7264,38.3542 -0.0016,37.6232 0.0004,36.7242 L0.0484,9.0332 C0.0494,8.1342 0.7784,7.4082 1.6774,7.4102 L16.2414,7.4542 C17.1394,7.4572 17.8664,8.1872 17.8654,9.0862 L17.8174,36.7772 C17.8154,37.6762 17.0864,38.4032 16.1884,38.4002 Z" id="Stroke-11" stroke="#909090" stroke-width="2" stroke-linecap="round" stroke-linejoin="round"></path>
                <polygon id="Fill-13" fill="#B8F2FE" points="15.1674 31.2776 2.6614 31.2366 2.6994 12.4686 15.2064 12.5106"></polygon>
                <polygon id="Stroke-15" stroke="#909090" stroke-width="1.5" stroke-linecap="round" stroke-linejoin="round" points="15.1674 31.2776 2.6614 31.2366 2.6994 12.4686 15.2064 12.5106"></polygon>
                <path d="M10.1884,35.1456 C10.1874,35.8516 9.6144,36.4226 8.9084,36.4206 C8.2024,36.4186 7.6314,35.8436 7.6324,35.1376 C7.6334,34.4316 8.2064,33.8616 8.9124,33.8636 C9.6184,33.8656 10.1894,34.4396 10.1884,35.1456" id="Fill-17" fill="#FFFFFF"></path>
                <path d="M10.1884,34.6420059 C10.1874,35.3480059 9.6144,35.9190059 8.9084,35.9170059 C8.2024,35.9150059 7.6314,35.3400059 7.6324,34.6340059 C7.6334,33.9280059 8.2064,33.3580059 8.9124,33.3600059 C9.6184,33.3620059 10.1894,33.9360059 10.1884,34.6420059 Z" id="Stroke-19" stroke="#E0E0E0" stroke-width="1.5" stroke-linecap="round" stroke-linejoin="round"></path>
                <g id="Group-24" transform="translate(7.000000, 9.400200)">
                    <path d="M0.1728,0.8997 L3.7368,0.9097" id="Fill-21" fill="#FFFFFF"></path>
                    <path d="M0.1728,0.8997 L3.7368,0.9097" id="Stroke-23" stroke="#E0E0E0" stroke-width="2" stroke-linecap="round" stroke-linejoin="round"></path>
                </g>
            </g>
        </g>
    </g>
</svg>