<?xml version="1.0" encoding="UTF-8" standalone="no"?>
<svg width="43px" height="41px" viewBox="0 0 43 41" version="1.1" xmlns="http://www.w3.org/2000/svg" xmlns:xlink="http://www.w3.org/1999/xlink">
    <!-- Generator: Sketch 49.3 (51167) - http://www.bohemiancoding.com/sketch -->
    <title>Sales &amp; Marketing Experts</title>
    <desc>Created with Sketch.</desc>
    <defs></defs>
    <g id="Symbols" stroke="none" stroke-width="1" fill="none" fill-rule="evenodd">
        <g id="icon-small/Sales-&amp;-Marketing-Experts" transform="translate(1.000000, 0.000000)">
            <g id="Sales-&amp;-Marketing-Experts" transform="translate(0.000000, 1.000000)">
                <path d="M19.0061,12.5793 L23.5421,12.5793 L19.0061,12.5793 Z" id="Fill-1" fill="#B2B2B2"></path>
                <path d="M19.0065,12.5797 L23.5425,12.5797" id="Stroke-2" stroke="#7D7D7D" stroke-width="2" stroke-linecap="round" stroke-linejoin="round"></path>
                <polygon id="Fill-3" fill="#B2B2B2" points="19.705 9.3407 22.843 9.3407 22.843 -0.0003 19.705 -0.0003"></polygon>
                <polygon id="Stroke-4" stroke="#7D7D7D" stroke-width="2" stroke-linecap="round" stroke-linejoin="round" points="19.705 9.3407 22.843 9.3407 22.843 -0.0003 19.705 -0.0003"></polygon>
                <polygon id="Fill-6" fill="#FFFFFF" points="11.8698 38.1886 21.2738 21.2996 30.6788 38.1886 34.5658 38.1886 22.8568 17.4466 21.2738 19.2296 19.6918 17.4466 7.9828 38.1886"></polygon>
                <polygon id="Stroke-7" stroke="#7D7D7D" stroke-width="2" stroke-linecap="round" stroke-linejoin="round" points="11.8698 38.1886 21.2738 21.2996 30.6788 38.1886 34.5658 38.1886 22.8568 17.4466 21.2738 19.2296 19.6918 17.4466 7.9828 38.1886"></polygon>
                <polygon id="Fill-9" fill="#FFFFFF" points="1.335 27.3177 38.975 27.3177 38.975 2.7957 1.335 2.7957"></polygon>
                <polygon id="Stroke-10" stroke="#7D7D7D" stroke-width="2" stroke-linecap="round" stroke-linejoin="round" points="1.335 27.3177 38.975 27.3177 38.975 2.7957 1.335 2.7957"></polygon>
                <polygon id="Fill-12" fill="#B2B2B2" points="0 27.3177 40.31 27.3177 40.31 23.2157 0 23.2157"></polygon>
                <polygon id="Stroke-13" stroke="#7D7D7D" stroke-width="2" stroke-linecap="round" stroke-linejoin="round" points="0 27.3177 40.31 27.3177 40.31 23.2157 0 23.2157"></polygon>
                <polyline id="Stroke-15" stroke="#72E6FF" stroke-width="2" stroke-linecap="round" stroke-linejoin="round" points="29.3913 17.9454 23.5843 12.1384 17.1873 16.0294 10.4603 9.0514"></polyline>
                <g id="Group-24" transform="translate(9.000000, 7.188700)" stroke="#72E6FF" stroke-linecap="round" stroke-linejoin="round" stroke-width="2">
                    <path d="M19.0095,10.7567 C19.0095,11.5197 19.6285,12.1387 20.3915,12.1387 C21.1545,12.1387 21.7735,11.5197 21.7735,10.7567 C21.7735,9.9937 21.1545,9.3747 20.3915,9.3747 C19.6285,9.3747 19.0095,9.9937 19.0095,10.7567 Z" id="Stroke-16"></path>
                    <path d="M12.9406,5.2394 C12.9406,6.0024 13.5596,6.6214 14.3226,6.6214 C15.0856,6.6214 15.7036,6.0024 15.7036,5.2394 C15.7036,4.4764 15.0856,3.8574 14.3226,3.8574 C13.5596,3.8574 12.9406,4.4764 12.9406,5.2394 Z" id="Stroke-18"></path>
                    <path d="M6.8698,8.6757 C6.8698,9.4387 7.4888,10.0577 8.2518,10.0577 C9.0148,10.0577 9.6338,9.4387 9.6338,8.6757 C9.6338,7.9127 9.0148,7.2937 8.2518,7.2937 C7.4888,7.2937 6.8698,7.9127 6.8698,8.6757 Z" id="Stroke-20"></path>
                    <path d="M0.0783,1.8629 C0.0783,2.6259 0.6973,3.2449 1.4603,3.2449 C2.2233,3.2449 2.8423,2.6259 2.8423,1.8629 C2.8423,1.0999 2.2233,0.4809 1.4603,0.4809 C0.6973,0.4809 0.0783,1.0999 0.0783,1.8629 Z" id="Stroke-22"></path>
                </g>
            </g>
        </g>
    </g>
</svg>