<?xml version="1.0" encoding="UTF-8" standalone="no"?>
<svg width="41px" height="41px" viewBox="0 0 41 41" version="1.1" xmlns="http://www.w3.org/2000/svg" xmlns:xlink="http://www.w3.org/1999/xlink">
    <!-- Generator: Sketch 49.3 (51167) - http://www.bohemiancoding.com/sketch -->
    <title>Virtual Assistants</title>
    <desc>Created with Sketch.</desc>
    <defs></defs>
    <g id="Symbols" stroke="none" stroke-width="1" fill="none" fill-rule="evenodd">
        <g id="icon-small/Virtual-Assistants" transform="translate(1.000000, 1.000000)">
            <g id="Virtual-Assistants" transform="translate(0.500000, 0.500000)">
                <path d="M38.5,19.2499 C38.5,29.8819 29.881,38.4999 19.25,38.4999 C8.619,38.4999 0,29.8819 0,19.2499 C0,8.6189 8.619,-0.0001 19.25,-0.0001 C29.881,-0.0001 38.5,8.6189 38.5,19.2499 Z" id="Stroke-1" stroke="#7D7D7D" stroke-width="2" stroke-linecap="round" stroke-linejoin="round"></path>
                <path d="M15.9624,25.9804 C17.2494,25.9804 17.2514,23.9804 15.9624,23.9804 C14.6754,23.9804 14.6734,25.9804 15.9624,25.9804" id="Fill-3" fill="#7D7D7D"></path>
                <path d="M16.4448,25.9804 C17.7318,25.9804 17.7338,23.9804 16.4448,23.9804 C15.1578,23.9804 15.1558,25.9804 16.4448,25.9804" id="Fill-5" fill="#7D7D7D"></path>
                <path d="M17.1464,25.9804 C18.4334,25.9804 18.4354,23.9804 17.1464,23.9804 C15.8594,23.9804 15.8574,25.9804 17.1464,25.9804" id="Fill-7" fill="#7D7D7D"></path>
                <path d="M16.8344,25.9804 C18.1214,25.9804 18.1234,23.9804 16.8344,23.9804 C15.5474,23.9804 15.5454,25.9804 16.8344,25.9804" id="Fill-9" fill="#7D7D7D"></path>
                <path d="M19.0004,27.1398 C13.9134,27.1398 9.5444,30.1828 7.5934,34.5448 C10.8314,37.0158 14.8624,38.4998 19.2504,38.4998 C23.4714,38.4998 27.3624,37.1258 30.5354,34.8218 C28.6484,30.3108 24.1954,27.1398 19.0004,27.1398" id="Fill-11" fill="#B8F2FE"></path>
                <path d="M19.0004,27.1398 C13.9134,27.1398 9.5444,30.1828 7.5934,34.5448 C10.8314,37.0158 14.8624,38.4998 19.2504,38.4998 C23.4714,38.4998 27.3624,37.1258 30.5354,34.8218 C28.6484,30.3108 24.1954,27.1398 19.0004,27.1398 Z" id="Stroke-13" stroke="#7D7D7D" stroke-width="2" stroke-linecap="round" stroke-linejoin="round"></path>
                <g id="Group-18" transform="translate(16.000000, 24.500000)">
                    <path d="M0.2695,0.651 L0.2695,3.453 C0.2695,4.94 1.4755,6.145 2.9615,6.145 C4.4495,6.145 5.6545,4.94 5.6545,3.453 L5.6545,0.651" id="Fill-15" fill="#F2F2F2"></path>
                    <path d="M0.2695,0.651 L0.2695,3.453 C0.2695,4.94 1.4755,6.145 2.9615,6.145 C4.4495,6.145 5.6545,4.94 5.6545,3.453 L5.6545,0.651" id="Stroke-17" stroke="#7D7D7D" stroke-width="2" stroke-linecap="round" stroke-linejoin="round"></path>
                </g>
                <path d="M19.54,25.7277 L18.96,25.7277 C15.012,25.7277 11.811,22.5267 11.811,18.5787 L11.811,15.5447 C11.811,11.5967 15.012,8.3957 18.96,8.3957 L19.54,8.3957 C23.488,8.3957 26.689,11.5967 26.689,15.5447 L26.689,18.5787 C26.689,22.5267 23.488,25.7277 19.54,25.7277" id="Fill-19" fill="#F2F2F2"></path>
                <path d="M19.54,25.7277 L18.96,25.7277 C15.012,25.7277 11.811,22.5267 11.811,18.5787 L11.811,15.5447 C11.811,11.5967 15.012,8.3957 18.96,8.3957 L19.54,8.3957 C23.488,8.3957 26.689,11.5967 26.689,15.5447 L26.689,18.5787 C26.689,22.5267 23.488,25.7277 19.54,25.7277 Z" id="Stroke-21" stroke="#7D7D7D" stroke-width="2" stroke-linecap="round" stroke-linejoin="round"></path>
            </g>
        </g>
    </g>
</svg>