<?xml version="1.0" encoding="UTF-8"?>
<svg width="55px" height="55px" viewBox="0 0 55 55" version="1.1" xmlns="http://www.w3.org/2000/svg" xmlns:xlink="http://www.w3.org/1999/xlink">
    <!-- Generator: sketchtool 52.3 (67297) - http://www.bohemiancoding.com/sketch -->
    <title>1460FE6C-2F9B-4B2D-A9B0-4C03330A6F77</title>
    <desc>Created with sketchtool.</desc>
    <g id="Page-1" stroke="none" stroke-width="1" fill="none" fill-rule="evenodd">
        <g id="T2---XS" transform="translate(-15.000000, -2341.000000)" fill="#FFFFFF">
            <g id="Quote/XS-&amp;-SM" transform="translate(0.000000, 2311.000000)">
                <g id="Quote+Author" transform="translate(15.000000, 30.000000)">
                    <g id="Stacked-Group">
                        <path d="M46.9242472,8.07579696 C41.5409137,2.69243399 35.0670676,0 27.500903,0 C19.9332334,0 13.4575813,2.69243399 8.07424778,8.07579696 C2.69091427,13.4591599 0,19.9339445 0,27.5001505 C0,35.1184293 2.69091427,41.6058558 8.07424778,46.9639349 C13.4575813,52.322014 19.9332334,55 27.500903,55 C35.0670676,55 41.5409137,52.322014 46.9242472,46.9639349 C52.3075807,41.6058558 55,35.1184293 55,27.5001505 C55,19.9339445 52.3075807,13.4591599 46.9242472,8.07579696 Z M46.0269448,45.9904332 C40.9287428,51.1137777 34.752393,53.6746988 27.4993987,53.6746988 C20.2969143,53.6746988 14.133192,51.1137777 9.00973505,45.9904332 C3.88627806,40.8667882 1.3253012,34.7032103 1.3253012,27.5009014 C1.3253012,20.2478128 3.88627806,14.0713146 9.00973505,8.97320974 C14.133192,3.87510484 20.2969143,1.3253012 27.4993987,1.3253012 C34.7015824,1.3253012 40.8653047,3.88802512 45.9887617,9.01136966 C51.1122187,14.1347142 53.6746988,20.2985925 53.6746988,27.5009014 C53.6746988,34.7032103 51.1248462,40.8667882 46.0269448,45.9904332 Z M48.2609259,14.7577987 C45.7728658,10.697211 42.2691236,7.98213456 37.7518053,6.61106606 C35.5682092,5.95108901 33.7164546,5.62095015 32.1932323,5.62095015 C30.5174772,5.62095015 29.1227195,6.03978752 28.0056497,6.87776294 C26.8885799,7.71543769 26.0777792,8.13277169 25.5699381,8.13277169 C24.3006364,8.13277169 23.6658351,7.52360836 23.6658351,6.30498103 C23.6658351,5.39243873 24.1465993,4.6434625 25.1114371,4.0595557 C26.0762749,3.47564889 27.3711492,3.18369549 28.9957592,3.18369549 C31.5840036,3.18369549 33.5386501,3.51383435 34.859097,4.1738114 L34.935213,3.94529999 C32.5485406,3.08206804 29.960597,2.65060241 27.1695773,2.65060241 C22.497921,2.65060241 18.3359109,3.79315949 14.6817419,6.07646962 C10.6701586,8.564538 7.98052656,12.0679788 6.61134137,16.5855894 C5.95126835,18.7182624 5.62123184,20.5701069 5.62123184,22.1441296 C5.62123184,23.8197798 6.03851593,25.2272297 6.87609263,26.3697868 C7.71397018,27.5123438 8.13305939,28.335887 8.13305939,28.8434228 C8.13305939,30.0620502 7.52352979,30.6715142 6.3050723,30.6715142 C4.2231647,30.6715142 3.18401602,28.8960406 3.18401602,25.3414854 C3.18401602,23.2596261 3.48847996,21.3064548 4.09770871,19.4783635 L3.86936075,19.4022933 C3.0567549,22.6519661 2.65060241,25.2398579 2.65060241,27.1677727 C2.65060241,31.8901415 3.79174049,36.0776132 6.07642349,39.7319918 C8.56478445,43.7432692 12.0667215,46.4330891 16.5858449,47.8023536 C18.7167917,48.4626313 20.5700505,48.7924695 22.1441171,48.7924695 C23.8183679,48.7924695 25.2131256,48.3625072 26.3301954,47.4992753 C27.4472652,46.6360433 28.2595702,46.2045777 28.7674113,46.2045777 C30.036713,46.2045777 30.6715143,46.8392982 30.6715143,48.1087393 C30.6715143,48.9719712 30.1892458,49.6938869 29.224408,50.2777937 C28.2595702,50.8617005 26.966501,51.1536539 25.3415902,51.1536539 C22.9549178,51.1536539 21.0017756,50.8490722 19.4785533,50.2396082 L19.4021364,50.4681197 C21.177775,51.2805379 23.7660194,51.686747 27.168073,51.686747 C31.8379241,51.686747 35.9999342,50.5459939 39.6559084,48.2608798 C43.6656865,45.7728114 46.3550177,42.2708739 47.726008,37.75176 C48.3863819,35.5697767 48.7164184,33.741986 48.7164184,32.2692901 C48.7164184,30.5446302 48.2973292,29.1116231 47.4594516,27.9693667 C46.6218749,26.8268096 46.20429,26.0270196 46.20429,25.5699968 C46.20429,24.3005557 46.8138196,23.6658352 48.0322771,23.6658352 C48.9447664,23.6658352 49.6935912,24.1610435 50.2775483,25.1511594 C50.8615053,26.1412753 51.1536342,27.4470978 51.1536342,29.0719343 C51.1536342,30.8492119 50.8488694,32.8041872 50.2396407,34.9350561 L50.4679886,35.011427 C51.2805945,32.5756758 51.686747,29.9622268 51.686747,27.1695767 C51.686747,22.499525 50.5444055,18.362867 48.2609259,14.7577987 Z M40.3135318,39.5783083 C38.9157257,41.025197 37.176749,41.746988 35.0929882,41.746988 C32.6027134,41.746988 30.6222372,40.8334008 29.1500542,39.0056253 C27.828733,37.4333777 27.1680725,35.5550979 27.1680725,33.3719884 C27.1680725,29.4137121 28.9705858,26.495885 32.5789248,24.6176052 C32.3247782,24.4143854 32.0706317,24.1098563 31.8164851,23.7037174 C29.6821359,25.2269639 27.3457341,26.6991047 24.8063765,28.1189376 C24.6031195,31.368049 24.2727892,33.6765174 23.8153856,35.047349 C22.3413959,39.5148773 19.8529277,41.746988 16.3475723,41.746988 C14.9247732,41.746988 13.8320032,41.3155969 13.0695636,40.4525141 C12.3074251,39.5894313 11.9277108,38.5501846 11.9277108,37.3317678 C11.9277108,35.402683 12.8410124,33.6019634 14.6706266,31.9266028 C15.6360222,31.06352 16.8287645,30.2004372 18.2518647,29.3373544 C18.9634148,28.9312154 20.4355978,28.1459935 22.6717261,26.9783816 C22.7735052,26.3690229 22.849689,25.8868269 22.9005785,25.5314929 C22.1381388,26.2421609 21.1218538,26.5974949 19.8529277,26.5974949 C18.1247914,26.5974949 17.0576168,25.6598581 16.6511028,23.7815782 C14.1608279,23.5783585 12.8919019,22.2078275 12.8410124,19.669384 C12.7901228,17.4877776 13.3998939,16.3962229 14.6706266,16.3962229 C15.0771407,16.3962229 15.2803977,16.6246948 15.2803977,17.0816387 C15.2803977,17.1324437 15.216861,17.4243466 15.0897878,17.9573476 C14.9627145,18.4906492 14.8991779,18.9602192 14.8991779,19.3645544 C14.8991779,20.8878008 15.4583605,21.6492737 16.5764246,21.6492737 C16.5764246,19.5692772 17.2226314,17.5400857 18.5186583,15.560196 C19.8146853,13.5803063 21.2742212,12.5903614 22.9005785,12.5903614 C24.6284137,12.5903614 25.4923313,13.4026393 25.4923313,15.0256919 C25.4923313,16.7518575 24.7937294,18.4777225 23.3959234,20.202385 C21.9984185,21.9285506 20.5388825,23.0438544 19.0143043,23.5516032 C19.2175614,24.3130761 19.6493696,24.6936623 20.3103313,24.6936623 C21.4265887,24.6936623 22.4940645,24.0590514 23.5103495,22.7898297 C24.0186426,20.202385 25.0081279,18.9079111 26.4818165,18.9079111 C27.0918887,18.9079111 27.3966237,19.2376923 27.3966237,19.897856 C27.3966237,20.7609388 26.6850736,21.9538028 25.2637801,23.4752455 C25.1114126,24.2367184 25.0349277,24.9984919 25.0349277,25.7599648 C27.625476,24.1877172 29.632752,22.8929427 31.0558522,21.8777457 C30.9540731,21.5224117 30.9034847,20.9386057 30.9034847,20.1263279 C30.9034847,18.2492506 31.4355664,16.5248887 32.502741,14.9511379 C33.5699157,13.3770865 34.8659426,12.5903614 36.3905208,12.5903614 C38.1677399,12.5903614 39.0572528,13.4534442 39.0572528,15.1778061 C39.0572528,17.3101107 37.2785281,19.720189 33.7222831,22.4092435 C34.0273192,23.1199115 34.4338333,23.6021075 34.9421264,23.8561322 C35.0439054,23.6529125 35.6774651,23.5516032 36.8464187,23.5516032 C38.3201074,23.5516032 39.0572528,23.9321894 39.0572528,24.6936623 C39.0572528,25.5567451 38.1933352,25.9884368 36.4667045,25.9884368 C36.11108,26.0392417 35.5774927,25.9884368 34.8659426,25.8360219 C31.6132281,26.6991047 29.9886776,29.1106862 29.9886776,33.0674593 C29.9886776,34.7933243 30.4825169,36.2783919 31.4735077,37.5223615 C32.4644986,38.7660304 33.7222831,39.3865121 35.2471624,39.3865121 C36.5175941,39.3865121 37.5832631,38.9563235 38.4471807,38.0932407 C39.3110983,37.2304585 39.7432076,36.113351 39.7432076,34.74282 C39.7940972,32.2566846 38.9301796,31.012715 37.1529604,31.012715 C36.0348963,31.012715 35.4504195,31.5712688 35.3995299,32.6880757 C35.3995299,33.2466294 35.5774927,33.7543783 35.9331172,34.2113221 C36.2890428,34.668266 36.4667045,35.047349 36.4667045,35.3518781 C36.4667045,36.0117411 36.11108,36.3418229 35.3995299,36.3418229 C34.6370903,36.3418229 34.002025,36.0117411 33.4937319,35.3518781 C32.9854388,34.6920151 32.7312923,33.8797372 32.7312923,32.9150445 C32.7312923,31.7489358 33.1745431,30.7589909 34.0637549,29.9467131 C34.9532678,29.1344352 36.0330896,28.7282963 37.3038223,28.7282963 C38.87929,28.7282963 40.1226207,29.3121022 41.0374279,30.479714 C41.952235,31.6473259 42.4096386,33.0674593 42.4096386,34.74282 C42.4096386,36.5194899 41.7110367,38.1314196 40.3135318,39.5783083 Z M36.6042616,14.5783133 C36.027821,14.5783133 35.4158153,15.1111005 34.7673907,16.1763884 C34.1192507,17.2419629 33.7951807,18.4752881 33.7951807,19.8795181 C36.0039212,17.9439346 37.1084337,16.442782 37.1084337,15.3774942 C37.1084337,14.8447069 36.9402815,14.5783133 36.6042616,14.5783133 Z M23.2954327,14.5783133 C22.4952679,14.5783133 21.6151498,15.3692006 20.6550784,16.9509753 C19.695007,18.5327499 19.2168675,19.9495086 19.2168675,21.2048193 C20.496752,20.5521886 21.588604,19.5995558 22.4952679,18.3442452 C23.4019317,17.0889346 23.8554217,16.0093436 23.8554217,15.1057697 C23.8554217,14.7543303 23.6686534,14.5783133 23.2954327,14.5783133 Z M14.5783133,37.1075883 C14.5783133,38.4333525 15.1762699,39.0963855 16.3718752,39.0963855 C17.9300746,39.0963855 19.3080551,38.001596 20.5039685,35.8089977 C21.4900887,33.9735797 22.1659861,31.7571291 22.5301205,29.1566265 C17.2282995,31.7061033 14.5783133,34.35582 14.5783133,37.1075883 Z" id="logo-ge-white"></path>
                    </g>
                </g>
            </g>
        </g>
    </g>
</svg>