<?xml version="1.0" encoding="UTF-8" standalone="no"?>
<svg width="41px" height="41px" viewBox="0 0 41 41" version="1.1" xmlns="http://www.w3.org/2000/svg" xmlns:xlink="http://www.w3.org/1999/xlink">
    <!-- Generator: Sketch 49.3 (51167) - http://www.bohemiancoding.com/sketch -->
    <title>Writers</title>
    <desc>Created with Sketch.</desc>
    <defs></defs>
    <g id="Symbols" stroke="none" stroke-width="1" fill="none" fill-rule="evenodd">
        <g id="icon-small/Writers" transform="translate(1.000000, 1.000000)">
            <g id="Writers" transform="translate(0.500000, 0.500000)">
                <path d="M38.5001,19.2499 C38.5001,29.8819 29.8811,38.4999 19.2501,38.4999 C8.6181,38.4999 0.0001,29.8819 0.0001,19.2499 C0.0001,8.6189 8.6181,-0.0001 19.2501,-0.0001 C29.8811,-0.0001 38.5001,8.6189 38.5001,19.2499" id="Fill-1" fill="#FFFFFF"></path>
                <path d="M38.5001,19.2499 C38.5001,29.8819 29.8811,38.4999 19.2501,38.4999 C8.6181,38.4999 0.0001,29.8819 0.0001,19.2499 C0.0001,8.6189 8.6181,-0.0001 19.2501,-0.0001 C29.8811,-0.0001 38.5001,8.6189 38.5001,19.2499 Z" id="Stroke-3" stroke="#7D7D7D" stroke-width="2" stroke-linecap="round" stroke-linejoin="round"></path>
                <path d="M33.296,12.5148 L35.761,9.3518 C32.605,4.0988 27.013,0.4788 20.547,0.0478 L18.855,3.7168 L33.296,12.5148 Z" id="Fill-5" fill="#B8F2FE"></path>
                <path d="M33.296,12.5148 L35.761,9.3518 C32.605,4.0988 27.013,0.4788 20.547,0.0478 L18.855,3.7168 L33.296,12.5148 Z" id="Stroke-7" stroke="#7D7D7D" stroke-width="2" stroke-linecap="round" stroke-linejoin="round"></path>
                <path d="M30.026,10.6239 L21.98,5.7219 L10.679,13.2199 C12.315,18.6369 12.548,25.6849 9.997,31.0829 L12.985,32.9039 C16.612,28.1609 22.982,25.1359 28.546,24.1049 L30.026,10.6239 Z" id="Fill-9" fill="#E0E0E0"></path>
                <path d="M30.026,10.6239 L21.98,5.7219 L10.679,13.2199 C12.315,18.6369 12.548,25.6849 9.997,31.0829 L12.985,32.9039 C16.612,28.1609 22.982,25.1359 28.546,24.1049 L30.026,10.6239 Z" id="Stroke-11" stroke="#7D7D7D" stroke-width="2" stroke-linecap="round" stroke-linejoin="round"></path>
                <path d="M11.4908,31.9936 L19.6358,18.6246" id="Stroke-13" stroke="#7D7D7D" stroke-width="2" stroke-linecap="round" stroke-linejoin="round"></path>
                <path d="M20.8702,19.3764 C21.2862,18.6944 21.0702,17.8054 20.3882,17.3894 C19.7062,16.9744 18.8172,17.1904 18.4012,17.8724 C17.9862,18.5544 18.2022,19.4434 18.8842,19.8584 C19.5652,20.2744 20.4552,20.0584 20.8702,19.3764" id="Fill-15" fill="#FFFFFF"></path>
                <path d="M20.8702,19.3764 C21.2862,18.6944 21.0702,17.8054 20.3882,17.3894 C19.7062,16.9744 18.8172,17.1904 18.4012,17.8724 C17.9862,18.5544 18.2022,19.4434 18.8842,19.8584 C19.5652,20.2744 20.4552,20.0584 20.8702,19.3764 Z" id="Stroke-17" stroke="#7D7D7D" stroke-width="2" stroke-linecap="round" stroke-linejoin="round"></path>
            </g>
        </g>
    </g>
</svg>